<svg class="brand-johnson" viewBox="0 0 188 34"  xmlns="http://www.w3.org/2000/svg"><path d="M6.83 18.847c.372 2.037.689 4.096.689 5.91 0 3.893-1.307 6.686-3.18 6.687-1.516 0-1.516-1.635-1.515-2.735-.001-3.334 1.708-6.845 4.004-9.863l.003.001zm-.15-.767c-.406.51-.801 1.035-1.18 1.57l-.001.001c-1.847-1.807-3.33-5.69-3.33-8.863C2.17 2.912 7.4.683 7.669.683c.386 0 .267.09.267.624 0 .803-2.258 4.547-2.258 9.808 0 1.847.52 4.347 1.007 6.941l-.004.024zm14.119-4.876c-1.043-.062-1.986-.268-1.986-.93 0-.238.178-.416.475-.416.694 0 1.196.594 1.513 1.342l-.002.004zm6.898-3.452c-.02-2.2-.183-8.385 1.488-8.385.654 0 .743.713.743 1.961 0 2.64-.97 4.803-2.225 6.427l-.006-.003zM56.28 16.95c.168.633.276 1.312.276 1.981 0 .565-.297.981-.624.981-.357 0-.475-.357-.475-.95 0-.589.305-1.285.808-2.012h.015zm13.506-3.996a4.025 4.025 0 0 1-.836.093c-.803 0-1.28-.327-1.28-.862.002-.238.269-.535.566-.535.642 0 1.176.566 1.555 1.294l-.005.01zm25.45 5.02l.012-.018c-.517-1.26-1.426-2.472-3.266-2.472-.505 0-.772.446-.772.981 0 .98 1.545 1.604 2.972 1.604.298 0 .656-.036 1.055-.095zm11.424.88l-.007-.002c-2.295 3.016-4.001 6.525-4.001 9.857 0 1.1 0 2.734 1.515 2.734 1.873 0 3.18-2.793 3.18-6.687 0-1.81-.316-3.867-.687-5.902zm13.963-5.65l.004-.008c-.318-.747-.818-1.338-1.51-1.338-.297 0-.476.178-.476.416 0 .661.94.868 1.982.93zm6.903-3.442c1.258-1.625 2.23-3.792 2.23-6.434 0-1.248-.09-1.96-.743-1.96-1.674 0-1.506 6.204-1.487 8.394zm28.58 7.18l-.005-.002c-.507.731-.815 1.43-.815 2.021 0 .594.119.951.476.951.326 0 .624-.416.624-.98 0-.674-.11-1.356-.28-1.99zm-51.192 3.31c-.737-.562-1.423-1.526-2.47-2.242-.883-.605-3.212.05-5.231.417l-.004.003c-.175 1.164-.576 2.314-.977 2.314-.261 0-.377-.92-.703-1.99l-.02-.015c-.902.162-1.667.281-2.13.281-1.397 0-4.606-.624-4.606-2.734 0-1.188 1.337-1.664 2.615-1.664 1.456 0 3.774 1.04 4.339 2.17.149-2.022-1.308-3.12-1.308-3.448 0-.327 1.576-.92 1.724-.92.624 0 1.159 2.852 1.159 4.873 0 .096-.003.194-.007.295v.002c1.6-.32 3.32-.657 4.436-.505-1.07-1.516-1.873-3.596-1.873-6.479 0-7.31 7.282-10.61 8.41-10.61.506 0 .625.118.625.416 0 .654-.951 1.307-.951 6.3 0 3.454.39 6.406.719 8.903 2.902-3.018 5.983-5.099 7.87-5.099.059 0 .089.12.089.238 0 .208-1.902 1.1-1.902 3.953 0 2.23 1.367 4.25 3.15 4.25 2.022 0 3.18-2.14 3.18-3.715 0-.312-.037-.673-.112-1.04l-.002-.003c-2.824-.062-3.72-1.128-3.72-2.137 0-.683.684-1.486 1.576-1.486 1.069 0 2.574.817 3.136 2.648l.549-.003c.61 0 1.678-.436 2.81-1.269l.003-.007a155.13 155.13 0 0 1-.05-3.33c0-4.25 1.428-8.114 3.865-8.114 1.248 0 1.902 1.04 1.902 2.378 0 2.855-1.425 5.87-3.472 8.07l-.008.02c-.02 3.631-.133 5.611.389 5.611.624 0 2.585-6.33 5.082-6.33 2.616 0 .476 8.083 1.575 8.083 1.337 0 4.399-8.203 6.449-8.203 2.854 0 .892 6.865 1.873 6.865 1.01 0 2.526-6.865 5.17-6.865 3.359 0 .209 8.738 1.933 8.738 1.307 0 4.636-9.065 5.379-9.065.595 0-.297.713 1.99 3.983.099.137.187.278.267.422l.01.002c2.37-2.184 5.528-4.08 7.838-4.08.416 0 .654.06.654.357 0 .683-2.051 1.248-2.051 4.636 0 2.081 1.427 3.774 3.03 3.774 2.052 0 3.122-2.05 3.122-3.625 0-.4-.085-.906-.241-1.41l-.013-.007a4.937 4.937 0 0 1-1.351.198c-1.753 0-2.496-1.248-2.496-2.169 0-.684.653-1.337 1.515-1.338 1.19 0 2.418.688 3.105 2.027l.006.001c1.857-.802 3.56-2.355 4.706-2.355 2.823 0 1.218 6.123 1.872 6.123.713 0 2.883-6.36 5.142-6.36 1.783 0 1.634 2.377 1.634 3.447 0 2.437-.565 5.736.327 5.736.624 0 2.199-2.586 2.407-2.585.208 0 .238.06.238.326 0 .505-2.556 4.34-3.953 4.34-2.02 0-1.842-3.09-1.842-4.072 0-.773.238-4.755-.357-4.755-.445 0-1.605 2.585-2.675 4.487-1.1 1.932-1.634 4.102-2.734 4.102-1.456 0-1.16-2.02-1.16-3.983 0-2.615.328-5.14-.504-5.14-.384 0-1.414.904-2.768 1.546l-.002.004a5.97 5.97 0 0 1 .214 1.63c0 1.663-.862 5.943-4.874 5.943-2.853 0-5.082-2.229-5.082-5.142 0-2.704 1.516-3.536 2.377-4.487-1.478.246-3.9 1.754-5.771 3.485l-.005.018c.452 1.153.486 2.304.486 2.708 0 1.932-1.218 3.27-2.467 3.27-.832 0-1.664-.536-1.664-1.606 0-.84.593-1.965 1.537-3.137v-.01c-.476-1.29-1.148-2.232-1.507-2.232-.743 0-2.913 6.984-5.647 6.984-3.002 0-.921-8.5-1.932-8.5-.98 0-3.864 8.5-5.528 8.5-2.347 0-.237-8.35-1.278-8.35-1.337 0-4.428 8.35-6.508 8.35-2.942 0-.743-8.232-1.962-8.232-.654 0-1.724 2.23-2.734 4.458-.862 1.783-1.367 3.655-2.288 3.655-.862 0-1.041-.327-1.041-3.09 0-.878-.057-2.808-.107-4.803l-.005-.005c-1.02.664-2.102 1.12-3.19 1.287l-.003.007c.023.21.036.43.036.66 0 1.991-.802 6.182-4.904 6.182-3.091 0-4.785-2.348-4.785-5.349 0-1.605.773-2.676 1.516-3.567-1.622.976-3.476 2.48-5.207 4.302l-.006.026c.19 1.478.339 2.786.339 3.934 0 8.767-3.834 13.047-5.885 13.047-1.277 0-1.961-1.694-1.961-3.418 0-3.046 1.523-6.534 3.659-9.706zm.412-.599c.374-.529.764-1.048 1.165-1.552l.02-.047c-.487-2.593-1.006-5.093-1.006-6.939 0-5.26 2.288-9.005 2.288-9.808 0-.535.09-.624-.296-.624-.268 0-5.5 2.23-5.5 10.105 0 3.175 1.479 7.061 3.329 8.865zm64.29-6.699l.004-.01c-.378-.728-.912-1.294-1.554-1.294-.298 0-.565.297-.565.535 0 .535.505.862 1.278.862.28 0 .559-.034.837-.093zm-155.47-.888c-.743.891-1.545 1.962-1.545 3.566 0 3.002 1.723 5.35 4.814 5.35 4.102 0 4.904-4.19 4.904-6.182 0-.232-.013-.454-.037-.665 1.088-.168 2.174-.624 3.194-1.289l.005.003c.049 1.995.107 3.927.107 4.804-.03 2.764.178 3.091 1.04 3.091.922 0 1.427-1.872 2.288-3.655 1.01-2.229 2.08-4.458 2.735-4.458 1.219 0-.981 8.232 1.962 8.232 2.08 0 5.17-8.35 6.509-8.35 1.04 0-1.071 8.35 1.247 8.35 1.694 0 4.577-8.5 5.558-8.5 1.01 0-1.07 8.5 1.932 8.5 2.704 0 4.904-6.984 5.647-6.984.357 0 1.026.935 1.503 2.217l-.004.034c-.94 1.17-1.53 2.291-1.53 3.128 0 1.07.833 1.605 1.665 1.605 1.248 0 2.467-1.337 2.467-3.269 0-.405-.034-1.558-.488-2.713l.003-.012c1.868-1.732 4.283-3.24 5.745-3.486-.832.951-2.348 1.783-2.348 4.487 0 2.913 2.229 5.142 5.083 5.142 4.012 0 4.874-4.28 4.874-5.944 0-.606-.078-1.153-.218-1.639l-.004.006c1.363-.64 2.393-1.547 2.778-1.547.832 0 .505 2.526.505 5.141 0 1.962-.297 3.983 1.159 3.983 1.1 0 1.634-2.17 2.734-4.102 1.07-1.902 2.229-4.487 2.675-4.487.594 0 .357 3.982.357 4.755 0 .98-.18 4.071 1.842 4.071 1.367 0 3.923-3.834 3.923-4.339 0-.267 0-.326-.208-.326s-1.783 2.585-2.407 2.585c-.892 0-.327-3.299-.327-5.736 0-1.07.149-3.447-1.635-3.447-2.258 0-4.458 6.36-5.141 6.36-.654 0 .95-6.123-1.872-6.123-1.15 0-2.856 1.56-4.718 2.36l.01.004c-.685-1.346-1.917-2.037-3.11-2.037-.861 0-1.515.654-1.515 1.338 0 .921.744 2.17 2.467 2.17.475 0 .935-.078 1.375-.202l.018.008c.157.505.242 1.011.24 1.412.002 1.575-1.068 3.625-3.12 3.625-1.604 0-3.03-1.694-3.03-3.774 0-3.388 2.05-3.953 2.05-4.636 0-.297-.237-.357-.683-.357-2.293 0-5.443 1.895-7.81 4.08l-.008-.002a4.807 4.807 0 0 0-.266-.422c-2.288-3.27-1.397-3.983-1.991-3.983-.743 0-4.072 9.065-5.38 9.065-1.723 0 1.427-8.738-1.931-8.738-2.645 0-4.161 6.865-5.172 6.866-.98 0 .98-6.866-1.872-6.866-2.051 0-5.112 8.203-6.45 8.203-1.128 0 1.04-8.084-1.574-8.084-2.497 0-4.458 6.331-5.083 6.33-.521.001-.41-1.977-.39-5.606l.01-.025c2.047-2.2 3.47-5.214 3.472-8.069 0-1.338-.654-2.378-1.903-2.378-2.437 0-3.863 3.863-3.863 8.113 0 .927.02 2.11.049 3.325l-.007.016c-1.131.831-2.197 1.266-2.806 1.266l-.551.003.002.001c-.562-1.832-2.073-2.649-3.166-2.649-.862 0-1.546.802-1.546 1.486 0 1.01.895 2.074 3.716 2.137l.007.006c.074.367.11.726.11 1.037 0 1.575-1.158 3.715-3.208 3.715-1.784 0-3.121-2.02-3.121-4.25 0-2.853 1.902-3.745 1.902-3.953 0-.118-.03-.238-.09-.238-1.886 0-4.964 2.078-7.864 5.094h-.005c-.328-2.497-.72-5.447-.72-8.898 0-4.993.922-5.646.922-6.3C9.035.118 8.945 0 8.44 0 7.31 0 0 3.3 0 10.61c0 5.623 3.094 8.122 5.087 9.64-2.137 3.172-3.66 6.66-3.66 9.707 0 1.724.683 3.418 1.96 3.418 2.022 0 5.886-4.28 5.886-13.047 0-1.152-.15-2.464-.34-3.948v-.005c1.734-1.826 3.589-3.332 5.214-4.309z" fill="#FEFEFE" fill-rule="evenodd"/></svg>
