<svg width="72px" class="brand-unfpa" height="34px" viewBox="0 0 72 34" version="1.1" xmlns="http://www.w3.org/2000/svg" xmlns:xlink="http://www.w3.org/1999/xlink">
    <defs>
        <polygon id="path-1" points="0.524756757 0.330441509 33.5526486 0.330441509 33.5526486 33.3584906 0.524756757 33.3584906"></polygon>
    </defs>
    <g id="Page-1" stroke="none" stroke-width="1" fill="none" fill-rule="evenodd">
        <g id="Desktop/1920_intro_3" transform="translate(-1807.000000, -41.000000)">
            <g id="Group-2" transform="translate(1807.000000, 40.000000)">
                <g id="a_icon_unfpa_white" transform="translate(0.000000, 0.891892)">
                    <g id="Group-3" stroke-width="1" transform="translate(38.270270, 0.311389)">
                        <mask id="mask-2" fill="white">
                            <use xlink:href="#path-1"></use>
                        </mask>
                        <g id="Clip-2"></g>
                        <path d="M30.9437838,14.2165547 L30.0356757,17.9398755 L31.8518919,17.9398755 L30.9437838,14.2165547 Z M23.5401081,13.4967811 L23.5401081,16.6087434 L24.084973,16.6087434 C24.4092973,16.6087434 24.6758919,16.580517 24.8841081,16.5247057 C25.0962162,16.4688943 25.2726486,16.3572717 25.4147027,16.1898377 C25.5372973,16.0410075 25.6255135,15.8633094 25.6787027,15.6586679 C25.7351351,15.4495358 25.763027,15.1967811 25.763027,14.8991208 C25.763027,14.6059509 25.7065946,14.3551208 25.5937297,14.1459887 C25.4815135,13.9317245 25.3504865,13.7835358 25.2019459,13.7001396 C25.0034595,13.588517 24.8095135,13.5275736 24.6207568,13.5179509 C24.432,13.5038377 24.1816216,13.4967811 23.867027,13.4967811 L23.5401081,13.4967811 Z M21.6324324,11.5587811 L24.7705946,11.5587811 C25.2402162,11.5587811 25.6358919,11.616517 25.956973,11.7326302 C26.2812973,11.8442528 26.5667027,12.0155358 26.8144865,12.2432717 C27.1122162,12.5171962 27.3392432,12.8681019 27.4949189,13.2959887 C27.6538378,13.723234 27.7323243,14.2364415 27.7323243,14.8362528 C27.7323243,15.3013472 27.6758919,15.7568189 27.5597838,16.2026679 C27.4443243,16.6446679 27.2789189,17.0161019 27.0635676,17.3182528 C26.7690811,17.7275358 26.4395676,18.0380264 26.0756757,18.2471585 C25.715027,18.4562906 25.2642162,18.5608566 24.7251892,18.5608566 L23.5401081,18.5608566 L23.5401081,21.9428943 L21.6324324,21.9428943 L21.6324324,11.5587811 Z M15.5844324,11.5587811 L20.8806486,11.5587811 L20.8806486,13.5679887 L17.4804324,13.5679887 L17.4804324,15.4995736 L20.6315676,15.4995736 L20.6315676,17.5068566 L17.4804324,17.5068566 L17.4804324,21.9428943 L15.5844324,21.9428943 L15.5844324,11.5587811 Z M7.84216216,11.5587811 L10.1189189,11.5587811 L12.8147027,17.5068566 L12.8147027,11.5587811 L14.5621622,11.5587811 L14.5621622,21.9428943 L12.7251892,21.9428943 L9.58832432,14.815083 L9.58832432,21.9428943 L7.84216216,21.9428943 L7.84216216,11.5587811 Z M16.8557838,0.330441509 C9.54356757,0.330441509 3.33016216,4.97946038 1.06962162,11.4510075 L2.04972973,11.4510075 L2.04972973,17.9302528 C2.04972973,18.6506679 2.15675676,19.1863283 2.37210811,19.5398 C2.58681081,19.8932717 2.93708108,20.0690453 3.42032432,20.0690453 C3.89643243,20.0690453 4.24345946,19.8996868 4.46205405,19.5603283 C4.68324324,19.2209698 4.79351351,18.6782528 4.79351351,17.9302528 L4.79351351,11.4510075 L6.70962162,11.4510075 L6.70962162,18.076517 C6.70962162,19.3595358 6.432,20.3416868 5.87610811,21.0255358 C5.32021622,21.7087434 4.50227027,22.0506679 3.42032432,22.0506679 C2.33837838,22.0506679 1.51848649,21.7087434 0.962594595,21.0255358 C0.790054054,20.8119132 0.643459459,20.5694226 0.524756757,20.2980642 C2.13016216,27.7594604 8.832,33.3585547 16.8557838,33.3585547 C24.3334054,33.3585547 30.6629189,28.4978377 32.7891892,21.7966302 L32.3124324,19.8438755 L29.5731892,19.8438755 L29.0620541,21.9428943 L27.1420541,21.9428943 L29.8709189,11.5587811 L32.0652973,11.5587811 L33.5494054,17.2040642 C33.552,17.0847434 33.5526486,16.9647811 33.5526486,16.8448189 C33.5526486,7.72512075 26.076973,0.330441509 16.8557838,0.330441509 L16.8557838,0.330441509 Z" id="Fill-1" fill="#FEFEFE" mask="url(#mask-2)"></path>
                    </g>
                    <path d="M26.6429838,11.9204 C26.2894703,12.2270415 26.0533622,12.6222113 25.7815784,12.9776075 C25.5558486,13.2727019 25.2457946,13.4555321 24.9792,13.7037962 C25.1232,13.4080604 25.1497946,13.0699849 25.3327135,12.7838717 C25.6447135,12.295683 26.1616865,12.1057962 26.6429838,11.9204 L26.6429838,11.9204 Z M24.7087135,12.9891547 C24.8929297,12.7877208 25.0992,12.6305509 25.3443892,12.5683245 C24.8676324,12.8922868 24.8935784,13.4715698 24.7476324,13.9552679 C24.6944432,14.1323245 24.6159568,14.2984755 24.5744432,14.4813057 L24.5867676,14.4909283 C24.6659027,14.2843623 24.8021189,14.0854943 24.9792,13.9199849 C25.3139027,13.6069283 25.8179027,13.417683 25.9839568,12.9602868 C25.976173,13.5960226 25.4287135,14.0790792 24.9279568,14.4530792 C24.7035243,14.6211547 24.5128216,14.845683 24.3967135,15.0817585 C24.416173,14.9066264 24.4246054,14.7603623 24.4090378,14.5890792 C24.3577946,14.0335321 24.3240649,13.4112679 24.7087135,12.9891547 Z M23.7448216,14.8867396 C23.7448216,14.3241358 23.9666595,13.8654566 24.2987676,13.4465509 C24.3084973,13.4414189 24.3149838,13.4317962 24.3273081,13.4343623 C23.9621189,13.9841358 24.2948757,14.6788906 24.2475243,15.3030792 L24.1995243,15.9433057 C24.2066595,15.9477962 24.2066595,15.9670415 24.2235243,15.9599849 C24.2455784,15.8887774 24.2520649,15.8124377 24.2643892,15.7386642 C24.3526054,15.2222491 24.8112,14.8630038 25.1997405,14.4986264 C25.2918486,14.4126642 25.3593081,14.3106642 25.4021189,14.200966 C25.3703351,14.4582113 25.2976865,14.7218717 25.1809297,14.9553811 C24.8812541,15.5545509 24.3033081,16.0382491 24.1995243,16.7195321 C24.1489297,16.0664755 23.7448216,15.5814943 23.7448216,14.8867396 L23.7448216,14.8867396 Z M23.4684973,15.6860604 C23.5093622,15.5102868 23.5404973,15.3280981 23.6176865,15.1670792 C23.4717405,15.9105887 23.9712,16.4475321 24.1424432,17.0903245 C24.2066595,17.3328151 24.2287135,17.5900604 24.3279568,17.8165132 C24.3370378,17.8216453 24.3448216,17.8120226 24.3506595,17.8043245 C24.104173,17.119834 24.4654703,16.4873057 24.8176865,15.9477962 C24.9104432,15.8060226 24.9552,15.6411547 24.9980108,15.4743623 C25.0362811,15.7842113 24.9694703,16.1428151 24.9117405,16.4622868 C24.8371459,16.8741358 24.6950919,17.259683 24.5815784,17.6567774 C24.5076324,17.9050415 24.5270919,18.1853811 24.5653622,18.4451925 L24.5290378,18.416966 C24.2669838,17.9377585 23.7493622,17.5637585 23.5930378,17.0409283 C23.4684973,16.6233057 23.3815784,16.1408906 23.4684973,15.6860604 Z M23.4444973,17.1384377 C23.502227,17.9262113 24.3506595,18.3470415 24.7554162,18.994966 C24.8416865,19.1335321 24.9305514,19.2759472 25.0557405,19.3875698 C25.0362811,19.3041736 24.9668757,19.2297585 24.9279568,19.1470038 C24.798227,18.8692302 24.7398486,18.547834 24.7722811,18.2168151 C24.8112,17.8145887 24.9811459,17.4405887 24.9162811,17.017834 C25.2646054,17.7619849 25.1523892,18.6921736 25.3534703,19.4972679 C25.398227,19.674966 25.5078486,19.8308528 25.5753081,19.9995698 C25.2328216,19.741683 24.7839568,19.5126642 24.4077405,19.2194943 C24.0444973,18.9365887 23.7286054,18.6042868 23.5644973,18.1719094 C23.4464432,17.8601358 23.4159568,17.4887019 23.4444973,17.1384377 Z M23.8726054,18.9474943 C24.272173,19.8424 25.2756324,19.9123245 25.9430919,20.4608151 C26.0695784,20.5653811 26.1954162,20.660966 26.3348757,20.7257585 L26.3420108,20.7180604 C26.1882811,20.5807774 26.0215784,20.4165509 25.902227,20.2452679 C25.5208216,19.6967774 25.6479568,18.9474943 25.3534703,18.3669283 C25.6207135,18.6831925 25.8717405,19.0090792 26.0254703,19.3708906 C26.2726054,19.9540226 26.3569297,20.6192679 26.912173,21.0619094 C26.3115243,20.8662491 25.6181189,20.9047396 25.0771459,20.5544755 C24.5082811,20.1862491 23.9809297,19.6044 23.8726054,18.9474943 Z M24.8987676,20.6160604 C25.5396324,21.337117 26.5839568,21.1055321 27.4388757,21.2851547 C27.5575784,21.3101736 27.6697946,21.3493057 27.7969297,21.3300604 C27.6957405,21.2665509 27.5608216,21.2594943 27.4434162,21.2152302 C26.7804973,20.9682491 26.6767135,20.2664377 26.3134703,19.7833811 C26.7772541,20.0880981 27.1612541,20.5050792 27.5952,20.897683 C27.8968216,21.1703245 28.2730378,21.2870792 28.6628757,21.3659849 C28.5688216,21.3993434 28.446227,21.3916453 28.3456865,21.4160226 C27.6451459,21.5879472 26.8687135,21.8593057 26.1234162,21.6161736 C25.6427676,21.4590038 25.1420108,21.0875698 24.8987676,20.6160604 L24.8987676,20.6160604 Z M32.0475243,22.6034566 C31.9690378,22.6919849 31.8678486,22.7747396 31.7718486,22.8510792 C31.1536865,22.2191925 30.4284973,21.5193057 29.7383351,21.5193057 C29.3108757,21.5193057 29.0027676,21.8413434 28.6434162,22.0684377 C28.1446054,22.3834189 27.4602811,22.561117 26.8745514,22.3295321 C26.5593081,22.2114943 26.2537946,22.0370038 26.0254703,21.7534566 C26.4866595,22.0684377 27.1774703,22.1107774 27.6983351,21.8971547 C28.2743351,21.6610792 28.8600649,21.3473811 29.5164973,21.3473811 C30.4836324,21.3473811 31.4027676,21.9940226 32.0475243,22.6034566 L32.0475243,22.6034566 Z" id="Fill-4" fill="#FEFEFE"></path>
                    <path d="M33.7973189,11.9204 C34.1508324,12.2270415 34.3869405,12.6222113 34.6587243,12.9776075 C34.8844541,13.2727019 35.1945081,13.4555321 35.4611027,13.7037962 C35.3171027,13.4080604 35.2905081,13.0699849 35.1075892,12.7838717 C34.7955892,12.295683 34.2786162,12.1057962 33.7973189,11.9204 L33.7973189,11.9204 Z M35.7315892,12.9891547 C35.547373,12.7877208 35.3411027,12.6305509 35.0959135,12.5683245 C35.5726703,12.8922868 35.5467243,13.4715698 35.6926703,13.9552679 C35.7458595,14.1323245 35.8243459,14.2984755 35.8658595,14.4813057 L35.8535351,14.4909283 C35.7744,14.2843623 35.6381838,14.0854943 35.4611027,13.9199849 C35.1264,13.6069283 34.6224,13.417683 34.4563459,12.9602868 C34.4641297,13.5960226 35.0115892,14.0790792 35.5123459,14.4530792 C35.7367784,14.6211547 35.9274811,14.845683 36.0435892,15.0817585 C36.0241297,14.9066264 36.0156973,14.7603623 36.0312649,14.5890792 C36.0825081,14.0335321 36.1162378,13.4112679 35.7315892,12.9891547 Z M36.6954811,14.8867396 C36.6954811,14.3241358 36.4736432,13.8654566 36.1415351,13.4465509 C36.1318054,13.4414189 36.1253189,13.4317962 36.1123459,13.4343623 C36.4781838,13.9841358 36.145427,14.6788906 36.1927784,15.3030792 L36.2407784,15.9433057 C36.2336432,15.9477962 36.2336432,15.9670415 36.2167784,15.9599849 C36.1947243,15.8887774 36.1882378,15.8124377 36.1759135,15.7386642 C36.0876973,15.2222491 35.6291027,14.8630038 35.2405622,14.4986264 C35.1484541,14.4126642 35.0809946,14.3106642 35.0381838,14.200966 C35.0699676,14.4582113 35.1426162,14.7218717 35.259373,14.9553811 C35.5590486,15.5545509 36.1369946,16.0382491 36.2407784,16.7195321 C36.291373,16.0664755 36.6954811,15.5814943 36.6954811,14.8867396 L36.6954811,14.8867396 Z M36.9718054,15.6860604 C36.9309405,15.5102868 36.8998054,15.3280981 36.8226162,15.1670792 C36.9685622,15.9105887 36.4691027,16.4475321 36.2978595,17.0903245 C36.2336432,17.3328151 36.2115892,17.5900604 36.1123459,17.8165132 C36.1032649,17.8216453 36.0954811,17.8120226 36.0896432,17.8043245 C36.3361297,17.119834 35.9748324,16.4873057 35.6226162,15.9477962 C35.5298595,15.8060226 35.4851027,15.6411547 35.4422919,15.4743623 C35.4040216,15.7842113 35.4708324,16.1428151 35.5285622,16.4622868 C35.6031568,16.8741358 35.7452108,17.259683 35.8587243,17.6567774 C35.9326703,17.9050415 35.9132108,18.1853811 35.8749405,18.4451925 L35.9112649,18.416966 C36.1733189,17.9377585 36.6909405,17.5637585 36.8472649,17.0409283 C36.9718054,16.6233057 37.0580757,16.1408906 36.9718054,15.6860604 Z M36.9958054,17.1384377 C36.9380757,17.9262113 36.0896432,18.3470415 35.6848865,18.994966 C35.5986162,19.1335321 35.5097514,19.2759472 35.3845622,19.3875698 C35.4040216,19.3041736 35.473427,19.2297585 35.5123459,19.1470038 C35.6420757,18.8692302 35.7004541,18.547834 35.6680216,18.2168151 C35.6291027,17.8145887 35.4591568,17.4405887 35.5240216,17.017834 C35.1756973,17.7619849 35.2879135,18.6921736 35.0868324,19.4972679 C35.0420757,19.674966 34.9324541,19.8308528 34.8649946,19.9995698 C35.2074811,19.741683 35.6563459,19.5126642 36.0325622,19.2194943 C36.3958054,18.9365887 36.7116973,18.6042868 36.8758054,18.1719094 C36.9938595,17.8601358 37.0243459,17.4887019 36.9958054,17.1384377 Z M36.5676973,18.9474943 C36.1681297,19.8424 35.1646703,19.9123245 34.4972108,20.4608151 C34.3707243,20.5653811 34.2448865,20.660966 34.105427,20.7257585 L34.0982919,20.7180604 C34.2520216,20.5807774 34.4187243,20.4165509 34.5380757,20.2452679 C34.9194811,19.6967774 34.7923459,18.9474943 35.0868324,18.3669283 C34.8195892,18.6831925 34.5685622,19.0090792 34.4148324,19.3708906 C34.1676973,19.9540226 34.083373,20.6192679 33.5281297,21.0619094 C34.1287784,20.8662491 34.8221838,20.9047396 35.3631568,20.5544755 C35.9320216,20.1862491 36.459373,19.6044 36.5676973,18.9474943 Z M35.5415351,20.6160604 C34.9006703,21.337117 33.8563459,21.1055321 33.001427,21.2851547 C32.8827243,21.3101736 32.7705081,21.3493057 32.643373,21.3300604 C32.7445622,21.2665509 32.8794811,21.2594943 32.9968865,21.2152302 C33.6598054,20.9682491 33.7635892,20.2664377 34.1268324,19.7833811 C33.6630486,20.0880981 33.2790486,20.5050792 32.8451027,20.897683 C32.5434811,21.1703245 32.1672649,21.2870792 31.777427,21.3659849 C31.8714811,21.3993434 31.9940757,21.3916453 32.0946162,21.4160226 C32.7951568,21.5879472 33.5715892,21.8593057 34.3168865,21.6161736 C34.7975351,21.4590038 35.2982919,21.0875698 35.5415351,20.6160604 L35.5415351,20.6160604 Z M28.3927784,22.6034566 C28.4712649,22.6919849 28.5724541,22.7747396 28.6684541,22.8510792 C29.2866162,22.2191925 30.0118054,21.5193057 30.7019676,21.5193057 C31.129427,21.5193057 31.4375351,21.8413434 31.7968865,22.0684377 C32.2956973,22.3834189 32.9800216,22.561117 33.5657514,22.3295321 C33.8809946,22.2114943 34.1865081,22.0370038 34.4148324,21.7534566 C33.9536432,22.0684377 33.2628324,22.1107774 32.7419676,21.8971547 C32.1659676,21.6610792 31.5802378,21.3473811 30.9238054,21.3473811 C29.9566703,21.3473811 29.0375351,21.9940226 28.3927784,22.6034566 L28.3927784,22.6034566 Z" id="Fill-6" fill="#FEFEFE"></path>
                    <path d="M34.5393081,18.2744226 L34.4348757,18.2179698 C34.2136865,18.6695925 33.9204973,19.0808 33.5695784,19.4361962 L32.9592,18.8325358 C33.258227,18.5278189 33.4995243,18.1820453 33.6766054,17.8086868 L33.5728216,17.752234 C33.3970378,18.1230264 33.1609297,18.4604604 32.876173,18.7504226 L32.3235243,18.2038566 C32.5609297,17.960083 32.7490378,17.6816679 32.8852541,17.3808 L32.7821189,17.3249887 C32.6484973,17.621366 32.4649297,17.8914415 32.2404973,18.1223849 L31.6301189,17.518083 C31.8000649,17.3403849 31.9310919,17.1351019 32.0199568,16.9137811 L31.9168216,16.8579698 C31.8318486,17.0741585 31.7060108,17.2704604 31.5477405,17.4366113 L30.9931459,16.8887623 C31.1514162,16.7142717 31.2428757,16.495517 31.2558486,16.2620075 L32.0407135,16.2620075 C32.034227,16.4717811 31.9907676,16.6719321 31.9168216,16.8579698 L32.0199568,16.9137811 C32.1029838,16.7084981 32.1496865,16.4884604 32.156173,16.2620075 L33.0214703,16.2620075 C33.0136865,16.6398566 32.9280649,16.9991019 32.7821189,17.3249887 L32.8852541,17.3808 C33.042227,17.0324604 33.1291459,16.6539698 33.1369297,16.2620075 L33.9204973,16.2620075 C33.9120649,16.7938189 33.788173,17.2980453 33.5728216,17.752234 L33.6766054,17.8086868 C33.9042811,17.3301208 34.0275243,16.805366 34.0359568,16.2620075 L34.9012541,16.2620075 C34.892173,16.9618943 34.7254703,17.6252151 34.4348757,18.2179698 L34.5393081,18.2744226 C34.8519568,17.6374038 35.0180108,16.9336679 35.0180108,16.2049132 C35.0180108,15.5845736 34.8980108,14.9834792 34.6696865,14.425366 L34.5626595,14.4709132 C34.7773622,14.9975925 34.8941189,15.5634038 34.9012541,16.1471774 L34.0359568,16.1471774 C34.0288216,15.6814415 33.9367135,15.2298189 33.7674162,14.8089887 L33.6610378,14.8538943 C33.8238486,15.2612528 33.9133622,15.6974792 33.9204973,16.1471774 L33.1369297,16.1471774 C33.1304432,15.8046113 33.0623351,15.4716679 32.9403892,15.1598943 L32.8340108,15.2054415 C32.9501189,15.5024604 33.0149838,15.8200075 33.0214703,16.1471774 L32.156173,16.1471774 C32.1503351,15.9380453 32.1101189,15.7346868 32.0387676,15.543517 L31.9323892,15.5884226 C31.9979027,15.7661208 32.0348757,15.954083 32.0407135,16.1471774 L31.2558486,16.1471774 C31.2428757,15.9136679 31.1514162,15.6949132 30.9931459,15.5210642 L31.5483892,14.9719321 C31.7196324,15.1521962 31.8493622,15.3613283 31.9323892,15.5884226 L32.0387676,15.543517 C31.9499027,15.3035925 31.8117405,15.0816302 31.6301189,14.8911019 L32.2417946,14.2861585 C32.5025514,14.5549509 32.7023351,14.8667245 32.8340108,15.2054415 L32.9403892,15.1598943 C32.8028757,14.8083472 32.5953081,14.4843849 32.3235243,14.2053283 L32.8774703,13.6574792 C33.2206054,14.0071019 33.4839568,14.4131774 33.6610378,14.8538943 L33.7674162,14.8089887 C33.5844973,14.3548 33.3127135,13.9371774 32.9592,13.5766491 L33.5708757,12.9717057 C34.0035243,13.4098566 34.3369297,13.9185736 34.5626595,14.4709132 L34.6696865,14.425366 C34.4316324,13.842234 34.0755243,13.3072151 33.6130378,12.8491774 C33.1479568,12.3898566 32.6043892,12.0370264 32.0128216,11.8015925 L31.9700108,11.9087245 C32.5297946,12.1319698 33.0454703,12.4623472 33.4891459,12.8908755 L32.8774703,13.4958189 C32.5194162,13.1526113 32.1042811,12.8863849 31.6541189,12.7061208 L31.6119568,12.8126113 C32.0472,12.9871019 32.4487135,13.2449887 32.7957405,13.5772906 L32.2417946,14.1251396 C31.9726054,13.8691774 31.6619027,13.6703094 31.3252541,13.5343094 L31.2830919,13.6401585 C31.6054703,13.7710264 31.9025514,13.9615547 32.1600649,14.2059698 L31.5483892,14.8109132 C31.3764973,14.6505358 31.1799568,14.5248 30.9672,14.4369132 L30.9250378,14.5434038 C31.1228757,14.625517 31.3057946,14.7429132 31.4666595,14.8923849 L30.9120649,15.4408755 C30.7356324,15.2843472 30.5144432,15.1938943 30.2783351,15.1810642 L30.2783351,14.4054792 C30.5034162,14.4118943 30.7220108,14.459366 30.9250378,14.5434038 L30.9672,14.4369132 C30.7512,14.3477434 30.5183351,14.2977057 30.2783351,14.2906491 L30.2783351,13.435517 C30.6286054,13.4419321 30.9678486,13.5124981 31.2830919,13.6401585 L31.3252541,13.5343094 C30.9970378,13.4008755 30.6428757,13.3277434 30.2776865,13.3206868 L30.2776865,12.5457434 C30.7427676,12.5528 31.1929297,12.6445358 31.6119568,12.8126113 L31.6541189,12.7061208 C31.2221189,12.5329132 30.7570378,12.4386113 30.2776865,12.4315547 L30.2776865,11.5757811 C30.8673081,11.5828377 31.4387676,11.6976679 31.9700108,11.909366 L32.0128216,11.802234 C31.4504432,11.5783472 30.8446054,11.4603094 30.2199568,11.4603094 C29.4487135,11.4603094 28.7202811,11.6418566 28.0735784,11.9632528 L28.1267676,12.0633283 C28.7520649,11.7534792 29.4435243,11.5841208 30.162227,11.5757811 L30.162227,12.4315547 C29.5764973,12.4398943 29.0225514,12.5810264 28.5289297,12.823517 L28.5814703,12.9229509 C29.0679568,12.6849509 29.6050378,12.554083 30.162227,12.5457434 L30.162227,13.3206868 C29.7263351,13.3290264 29.3144432,13.4329509 28.9453622,13.6106491 L28.9979027,13.7107245 C29.3572541,13.5381585 29.7522811,13.4432151 30.162227,13.4348755 L30.162227,14.2906491 C29.8904432,14.2983472 29.6329297,14.3618566 29.4000649,14.4702717 L29.4532541,14.5703472 C29.6731459,14.4696302 29.9137946,14.4125358 30.162227,14.4048377 L30.162227,15.1810642 C30.0409297,15.1874792 29.9248216,15.2150642 29.8177946,15.2599698 L29.8703351,15.3600453 C29.9799568,15.3157811 30.0986595,15.2926868 30.2199568,15.2926868 C30.4664432,15.2926868 30.6986595,15.3876302 30.8724973,15.5595547 C31.0469838,15.7321208 31.1429838,15.9611396 31.1429838,16.2049132 C31.1429838,16.7084981 30.7291459,17.1177811 30.2199568,17.1177811 C29.9734703,17.1177811 29.7419027,17.0228377 29.5674162,16.8509132 C29.3935784,16.6783472 29.2975784,16.4493283 29.2975784,16.2049132 C29.2975784,15.9611396 29.3935784,15.7321208 29.5674162,15.5595547 C29.6556324,15.4723094 29.7587676,15.4055925 29.8703351,15.3600453 L29.8177946,15.2599698 C29.7114162,15.304234 29.6141189,15.3658189 29.5291459,15.4408755 L28.9739027,14.8917434 C29.1172541,14.7583094 29.2787676,14.6505358 29.4526054,14.5703472 L29.4000649,14.4702717 C29.2126054,14.5568755 29.0413622,14.6723472 28.8928216,14.8115547 L28.2804973,14.2059698 C28.4952,14.0019698 28.7371459,13.8358189 28.9979027,13.7107245 L28.9453622,13.6106491 C28.6696865,13.7434415 28.4180108,13.9179321 28.1994162,14.1257811 L27.6448216,13.5772906 C27.9250378,13.3084981 28.2409297,13.0897434 28.5814703,12.9229509 L28.5289297,12.823517 C28.172173,12.9986491 27.8465514,13.2263849 27.5643892,13.4977434 L26.9514162,12.891517 C27.3023351,12.5521585 27.6993081,12.2750264 28.1261189,12.0633283 L28.0735784,11.9632528 C27.1395243,12.4277057 26.3786595,13.1840453 25.916173,14.1116679 L26.0160649,14.1655547 C26.2320649,13.7312528 26.5181189,13.3283849 26.8696865,12.9723472 L27.4826595,13.5785736 C27.1972541,13.8691774 26.9592,14.2046868 26.7795243,14.5735547 L26.8794162,14.6268 C27.0506595,14.2739698 27.2796324,13.9468 27.5630919,13.6581208 L28.1176865,14.2066113 C27.8939027,14.4369132 27.7090378,14.7037811 27.572173,14.9969509 L27.6720649,15.0501962 C27.8011459,14.7717811 27.978227,14.5138943 28.1987676,14.2868 L28.8110919,14.8923849 C28.6541189,15.0566113 28.5269838,15.2477811 28.436173,15.4588377 L28.5373622,15.5127245 C28.6210378,15.3151396 28.7397405,15.1323094 28.892173,14.9725736 L29.4474162,15.5217057 C29.2949838,15.6897811 29.1983351,15.9078943 29.1847135,16.1478189 L28.3998486,16.1478189 C28.4063351,15.9264981 28.4536865,15.712234 28.5373622,15.5127245 L28.436173,15.4588377 C28.3447135,15.6718189 28.2915243,15.9040453 28.2837405,16.1478189 L27.4190919,16.1478189 C27.4268757,15.7629132 27.5137946,15.3908377 27.6720649,15.0501962 L27.5715243,14.9969509 C27.4074162,15.3484981 27.3114162,15.7378943 27.3036324,16.1478189 L26.5200649,16.1478189 C26.5278486,15.6128 26.6523892,15.0963849 26.8794162,14.6268 L26.7795243,14.5735547 C26.5466595,15.0514792 26.4130378,15.5845736 26.4046054,16.1478189 L25.5393081,16.1478189 C25.5477405,15.4492151 25.7131459,14.7756302 26.0160649,14.1655547 L25.9155243,14.1116679 C25.6002811,14.7435547 25.4225514,15.4543472 25.4225514,16.2049132 C25.4225514,16.6648755 25.4887135,17.1139321 25.6152,17.5424604 L25.7287135,17.514234 C25.6093622,17.1126491 25.5444973,16.6924604 25.5393081,16.2626491 L26.4046054,16.2626491 C26.4097946,16.6206113 26.4655784,16.9708755 26.5680649,17.3051019 L26.6802811,17.277517 C26.5797405,16.9522717 26.5252541,16.6109887 26.5200649,16.2626491 L27.3036324,16.2626491 C27.3088216,16.5461962 27.356173,16.8239698 27.4417946,17.0876302 L27.5540108,17.0594038 C27.4709838,16.8047245 27.4242811,16.5372151 27.4190919,16.2626491 L28.2843892,16.2626491 C28.290227,16.465366 28.3278486,16.6635925 28.3953081,16.8502717 L28.5075243,16.8220453 C28.4426595,16.6443472 28.4056865,16.4557434 28.3998486,16.2626491 L29.1847135,16.2626491 C29.1976865,16.4961585 29.2891459,16.7149132 29.4467676,16.8887623 L28.892173,17.4378943 C28.7209297,17.2576302 28.5912,17.0484981 28.5075243,16.8220453 L28.3953081,16.8502717 C28.484173,17.0966113 28.6242811,17.3237057 28.8104432,17.5187245 L28.1987676,18.1236679 C27.9010378,17.8176679 27.6830919,17.4545736 27.5540108,17.0600453 L27.4417946,17.0876302 C27.5760649,17.5020453 27.8043892,17.8831019 28.1170378,18.2044981 L27.5630919,18.7529887 C27.1486054,18.330234 26.8495784,17.8260075 26.6802811,17.277517 L26.5680649,17.3057434 C26.7425514,17.8741208 27.0519568,18.3963094 27.4813622,18.8331774 L26.8696865,19.4387623 C26.3280649,18.8896302 25.9414703,18.2314415 25.7287135,17.514234 L25.6158486,17.5424604 C25.8383351,18.297517 26.250227,18.9890642 26.8275243,19.5606491 C27.2193081,19.9474792 27.666227,20.2592528 28.1514162,20.4889132 L28.2084973,20.3881962 C27.7499027,20.1720075 27.3250378,19.8801208 26.9514162,19.5189509 L27.5630919,18.9146491 C27.8809297,19.219366 28.2435243,19.4631396 28.6353081,19.6401962 L28.6923892,19.5401208 C28.3096865,19.3681962 27.9555243,19.1308377 27.6448216,18.8338189 L28.1987676,18.2859698 C28.458227,18.5329509 28.7566054,18.7260453 29.0796324,18.8620453 L29.1367135,18.7619698 C28.8227676,18.6317434 28.5328216,18.4444226 28.2804973,18.2051396 L28.8928216,17.6001962 C29.0893622,17.7836679 29.3176865,17.9215925 29.5661189,18.0094792 L29.6238486,17.9081208 C29.3844973,17.8260075 29.1633081,17.6951396 28.9745514,17.519366 L29.5291459,16.970234 C29.7055784,17.1267623 29.9267676,17.2172151 30.1628757,17.2300453 L30.1628757,18.0062717 C29.9767135,18.0004981 29.7957405,17.9671396 29.6238486,17.9081208 L29.5661189,18.0094792 C29.7555243,18.0768377 29.9566054,18.1146868 30.1628757,18.1204604 L30.1628757,18.976234 C29.8048216,18.9691774 29.4577946,18.8960453 29.1367135,18.7626113 L29.0796324,18.8626868 C29.418227,19.0051019 29.7847135,19.083366 30.1628757,19.0904226 L30.1628757,19.865366 C29.6472,19.8576679 29.1496865,19.7454038 28.6930378,19.5407623 L28.6359568,19.6408377 C29.1101189,19.8551019 29.6270919,19.9718566 30.1628757,19.9795547 L30.1628757,20.8353283 C29.4759568,20.8269887 28.8123892,20.6730264 28.2091459,20.3888377 L28.1514162,20.4895547 C28.7896865,20.7910642 29.4928216,20.9508 30.2206054,20.9508 C30.9847135,20.9508 31.7202811,20.7743849 32.3825514,20.4427245 L32.3280649,20.3381585 C31.7105514,20.647366 31.0152,20.8263472 30.2783351,20.8353283 L30.2783351,19.9795547 C30.8621189,19.9712151 31.4244973,19.8326491 31.9323892,19.5798943 L31.8785514,19.4766113 C31.3959568,19.7171774 30.8530378,19.8563849 30.2783351,19.865366 L30.2783351,19.0904226 C30.7168216,19.082083 31.1384432,18.9781585 31.5204973,18.7895547 L31.4666595,18.6869132 C31.1073081,18.8639698 30.7044973,18.9672528 30.2783351,18.976234 L30.2783351,18.1204604 C30.5572541,18.1127623 30.8264432,18.0460453 31.0703351,17.9280075 L31.0171459,17.825366 C30.7927135,17.9337811 30.5429838,17.9979321 30.2783351,18.0062717 L30.2783351,17.2300453 C30.5144432,17.2172151 30.7356324,17.1267623 30.9120649,16.970234 L31.4666595,17.5187245 C31.3336865,17.6418943 31.1825514,17.7458189 31.0171459,17.825366 L31.0703351,17.9280075 C31.2435243,17.8439698 31.4050378,17.7342717 31.5490378,17.6001962 L32.1594162,18.2044981 C31.9557405,18.398234 31.722227,18.5605358 31.4666595,18.6869132 L31.5204973,18.7895547 C31.7825514,18.6606113 32.0257946,18.4918943 32.2424432,18.2859698 L32.7950919,18.8325358 C32.5259027,19.0910642 32.2164973,19.3085358 31.8785514,19.4766113 L31.9323892,19.5798943 C32.276173,19.4092528 32.5946595,19.1866491 32.8781189,18.9146491 L33.4884973,19.5183094 C33.1479568,19.8467623 32.756173,20.1232528 32.3280649,20.3381585 L32.3825514,20.4427245 C32.8314162,20.2181962 33.2472,19.9231019 33.6130378,19.5612906 C33.9983351,19.180234 34.3090378,18.7459321 34.5399568,18.2757057 L34.5393081,18.2744226 Z" id="Fill-8" fill="#FEFEFE"></path>
                    <polygon id="Fill-10" fill="#FEFEFE" points="30.4947892 15.1064566 30.4656 15.1077396 30.4668973 15.1417396 30.4960865 15.1404566"></polygon>
                    <polygon id="Fill-12" fill="#FEFEFE" points="30.4235676 15.0898415 30.4624865 15.0898415 30.4624865 15.0609736 30.4235676 15.0609736"></polygon>
                    <polygon id="Fill-14" fill="#FEFEFE" points="30.3536432 15.0506453 30.387373 15.0557774 30.3919135 15.0269094 30.3575351 15.0217774"></polygon>
                    <polygon id="Fill-15" fill="#FEFEFE" points="30.324973 15.0408302 30.2912432 15.0356981 30.2951351 15.0068302 30.3288649 15.0119623"></polygon>
                    <polygon id="Fill-16" fill="#FEFEFE" points="30.0460541 15.0314642 30.084973 15.0314642 30.084973 15.0025962 30.0460541 15.0025962"></polygon>
                    <polygon id="Fill-17" fill="#FEFEFE" points="29.9617946 15.0604604 29.9955243 15.0649509 29.9994162 15.0367245 29.9656865 15.0315925"></polygon>
                    <polygon id="Fill-18" fill="#FEFEFE" points="29.9652324 15.1044679 29.9263135 15.0948453 29.9334486 15.0666189 29.9723676 15.0762415"></polygon>
                    <polygon id="Fill-19" fill="#FEFEFE" points="29.8959568 15.1403283 29.8914162 15.1114604 29.9199568 15.1063283 29.9244973 15.1358377"></polygon>
                    <polygon id="Fill-20" fill="#FEFEFE" points="26.082227 18.0966604 26.082227 18.072283 26.058227 18.072283 26.058227 18.1210377 26.0971459 18.1210377 26.0971459 18.1839057 26.1263351 18.1839057 26.1211459 18.1114151"></polygon>
                    <polygon id="Fill-21" fill="#FEFEFE" points="26.4647351 18.4949736 26.4452757 18.5289736 26.3920865 18.4802189 26.3531676 18.4269736 26.3343568 18.3833509 26.2999784 18.2961057 26.372627 18.3294642 26.3972757 18.3974642 26.4310054 18.422483"></polygon>
                    <polygon id="Fill-22" fill="#FEFEFE" points="27.4471135 19.8308528 27.442573 19.7872302 27.4036541 19.7288528 27.4620324 19.7384755 27.5243027 19.7917208 27.5489514 19.8552302 27.514573 19.8744755 27.4957622 19.8456075"></polygon>
                    <path d="M30.0702486,15.4201547 L30.0170595,15.4201547 L30.0073297,15.3130226 L30.0365189,15.2937774 L30.0365189,15.2405321 L29.8672216,15.2405321 L29.8620324,15.1872868 L29.8866811,15.1725321 L29.8477622,15.1577774 L29.818573,15.1969094 L29.8088432,15.2405321 L29.7608432,15.2501547 L29.7608432,15.2745321 L29.7264649,15.2745321 L29.7264649,15.3374 L29.5908973,15.4490226 L29.3204108,15.4394 C29.3009514,15.4830226 29.2523027,15.4349094 29.2523027,15.4349094 C29.242573,15.4054 29.1751135,15.4349094 29.1751135,15.4349094 C29.1751135,15.4881547 29.0830054,15.4105321 29.0830054,15.4105321 L28.9137081,15.2886453 C28.8170595,15.2014 28.6717622,15.3130226 28.666573,15.3374 C28.6717622,15.4054 28.5556541,15.3521547 28.5556541,15.3521547 C28.5556541,15.3521547 28.4590054,15.3232868 28.4440865,15.3617774 C28.4298162,15.4009094 28.3668973,15.3912868 28.3668973,15.3912868 L28.3571676,15.4105321 L28.3085189,15.4201547 L28.2987892,15.4490226 L28.2410595,15.4592868 L28.3857081,15.4541547 C28.424627,15.4490226 28.3714378,15.5369094 28.3474378,15.5317774 L28.2793297,15.5369094 L28.2553297,15.5612868 L28.1924108,15.5612868 L28.1632216,15.5997774 L28.0717622,15.5952868 C28.0717622,15.5952868 28.018573,15.6389094 28.0231135,15.6530226 C28.0283027,15.6677774 28.0133838,15.7114 27.9991135,15.7114 C27.9841946,15.7114 27.9556541,15.7556642 27.9647351,15.7697774 C27.9744649,15.7845321 27.9361946,15.8332868 27.9361946,15.8332868 L27.9264649,15.8814 L27.8972757,15.8916642 L27.8972757,16.0225321 L27.8395459,16.0616642 L27.8395459,16.1194 L27.7519784,16.2117774 L27.7617081,16.2894 L27.6890595,16.3676642 L27.6987892,16.4452868 L27.6553297,16.4594 L27.6456,16.4934 L27.6261405,16.5954 L27.6747892,16.6005321 C27.6987892,16.5909094 27.6942486,16.6640415 27.6747892,16.6736642 C27.6553297,16.6832868 27.6021405,16.7025321 27.6313297,16.7217774 C27.6605189,16.7416642 27.5534919,16.7365321 27.5534919,16.7076642 C27.5534919,16.6781547 27.4957622,16.6537774 27.4808432,16.6640415 C27.466573,16.6736642 27.442573,16.6197774 27.442573,16.6197774 C27.3893838,16.5665321 27.224627,16.6249094 27.224627,16.6249094 L27.200627,16.7025321 C27.1474378,16.7121547 27.1130595,16.8000415 27.1130595,16.8000415 C27.0696,16.8141547 27.0358703,16.8680415 27.0501405,16.8821547 C27.0650595,16.8969094 27.0261405,16.9020415 27.0261405,16.9020415 L27.0261405,17.0085321 L27.0021405,17.0425321 L27.0066811,17.1592868 C27.0358703,17.1592868 27.0313297,17.2125321 27.0313297,17.2125321 C26.9826811,17.2176642 26.9924108,17.2805321 26.9924108,17.2805321 L26.890573,17.3145321 L26.8711135,17.3440415 L26.7452757,17.3389094 L26.7115459,17.3729094 L26.6778162,17.3389094 L26.4358703,17.3389094 L26.4261405,17.3145321 L26.3774919,17.3049094 L26.3729514,17.2516642 L26.3003027,17.2561547 L26.2853838,17.2856642 L26.2081946,17.2901547 C26.2133838,17.3389094 26.1310054,17.4120415 26.1212757,17.3921547 C26.1115459,17.3729094 26.0583568,17.3196642 26.0823568,17.3100415 C26.1063568,17.2997774 26.1699243,17.2901547 26.1699243,17.2901547 L26.1699243,17.2561547 L25.9902486,17.2516642 L25.9714378,17.2805321 L25.8987892,17.2856642 L25.8987892,17.3632868 L25.8644108,17.3729094 C25.8404108,17.3876642 25.8696,17.4409094 25.8696,17.4409094 C25.9033297,17.4749094 25.8644108,17.5281547 25.8644108,17.5281547 C25.8358703,17.5576642 25.8890595,17.6109094 25.8890595,17.6109094 C25.9273297,17.6205321 25.8644108,17.6500415 25.8644108,17.6500415 C25.8741405,17.6981547 25.9033297,17.7129094 25.9033297,17.7129094 C25.8741405,17.7616642 25.9227892,17.7860415 25.9227892,17.7860415 L25.9273297,17.8681547 L25.9617081,17.8880415 L25.9617081,17.9412868 L25.9805189,17.9752868 L26.0583568,17.9752868 L26.0531676,17.8540415 C25.9857081,17.7757774 26.1115459,17.7565321 26.1160865,17.7854 C26.1212757,17.8149094 26.1744649,17.8296642 26.1744649,17.8296642 C26.1841946,17.9021547 26.266573,17.9457774 26.290573,17.8732868 C26.314573,17.8001547 26.3340324,17.8437774 26.3489514,17.8777774 C26.3632216,17.9117774 26.4553297,17.9945321 26.4553297,17.9945321 L26.5279784,17.9945321 L26.5377081,18.0625321 C26.6194378,18.0580415 26.6440865,18.0676642 26.6778162,18.1792868 C26.7115459,18.2909094 26.8036541,18.3197774 26.8036541,18.3197774 L26.8711135,18.3152868 C26.8711135,18.2569094 26.9392216,18.3249094 26.9392216,18.3544189 C26.9392216,18.3832868 27.0696,18.4949094 27.0696,18.4949094 L27.200627,18.5237774 L27.3212757,18.6212868 L27.4133838,18.6116642 L27.4523027,18.6116642 C27.4763027,18.5289094 27.5924108,18.6161547 27.6021405,18.6456642 C27.6118703,18.6745321 27.6890595,18.7232868 27.6987892,18.6989094 C27.7085189,18.6745321 27.7617081,18.6892868 27.7714378,18.7624189 C27.7811676,18.8349094 27.8148973,18.8207962 27.8148973,18.8207962 L28.0912216,18.8156642 L28.1878703,18.7329094 L28.4343568,18.7284189 C28.5601946,18.7232868 28.4830054,18.5532868 28.4590054,18.5532868 C28.4148973,18.5192868 28.4732757,18.3781547 28.4732757,18.3781547 L28.1197622,18.0529094 C28.0373838,18.0529094 28.1100324,17.9361547 28.1100324,17.9361547 C28.1729514,17.8976642 28.0957622,17.8341547 28.0957622,17.8341547 C28.1054919,17.7757774 28.0620324,17.7077774 28.0620324,17.7077774 C27.9751135,17.6494 27.9991135,17.5377774 27.9991135,17.5377774 L27.9991135,17.4601547 C27.9264649,17.3921547 28.0283027,17.3825321 28.0283027,17.3825321 C28.0620324,17.3241547 28.0036541,17.2805321 28.0036541,17.2805321 L27.9991135,17.2176642 L27.9212757,17.2074 L27.9115459,16.9790226 L27.7377081,16.7314 C27.7039784,16.7217774 27.7279784,16.6634 27.7279784,16.6634 C27.7714378,16.6390226 27.7182486,16.5812868 27.7182486,16.5812868 L27.7130595,16.4741547 L27.8148973,16.4645321 L27.8388973,16.4254 L27.8875459,16.4254 L27.8830054,16.2990226 C27.9070054,16.2361547 27.9647351,16.2701547 27.9647351,16.2701547 L28.0328432,16.2752868 L28.0717622,16.2021547 L28.0808432,16.1437774 L28.0276541,16.1392868 C27.9699243,16.1046453 27.9991135,15.9789094 27.9991135,15.9789094 C28.090573,15.8429094 28.1969514,15.9205321 28.1969514,15.9205321 L28.2650595,15.9154 C28.3668973,15.9834 28.2747892,16.1097774 28.2747892,16.1097774 C28.2553297,16.1392868 28.2650595,16.2310226 28.2650595,16.2310226 L28.2890595,16.3869094 L28.2261405,16.4401547 C28.1729514,16.4690226 28.1729514,16.5370226 28.2313297,16.5517774 C28.2696,16.5569094 28.2553297,16.6492868 28.1969514,16.5857774 C28.1100324,16.5857774 28.2456,16.6634 28.2073297,16.6441547 C28.2942486,16.6877774 28.2747892,16.6050226 28.2747892,16.6050226 L28.3908973,16.5126453 C28.4343568,16.4786453 28.5121946,16.5857774 28.5121946,16.6005321 C28.5121946,16.6152868 28.7054919,16.6050226 28.7054919,16.6050226 C28.7586811,16.6390226 28.7781405,16.7269094 28.7781405,16.7269094 C28.8313297,16.6589094 28.9428973,16.7217774 28.8605189,16.7609094 C28.9377081,16.8090226 28.9377081,16.8532868 28.9377081,16.8532868 C29.000627,16.8334 29.000627,16.8821547 29.000627,16.8969094 C29.000627,16.9110226 29.0200865,16.8237774 29.0200865,16.8237774 C28.9474378,16.7705321 29.1167351,16.7512868 29.0687351,16.8481547 L29.0395459,16.8917774 L29.0881946,16.9309094 L29.0927351,17.0425321 C29.1991135,17.0329094 29.1699243,16.9014 29.1699243,16.9014 L29.218573,16.8917774 C29.218573,16.8481547 29.2523027,16.8725321 29.2523027,16.8725321 C29.218573,16.7070226 29.3301405,16.6781547 29.3301405,16.6781547 C29.3924108,16.6634 29.3976,16.5325321 29.3976,16.5325321 C29.3541405,16.5126453 29.3781405,16.4452868 29.4267892,16.5030226 C29.4747892,16.5614 29.3976,16.3869094 29.3976,16.3869094 L29.3586811,16.3529094 L29.3054919,16.3477774 L29.3009514,16.2945321 L29.2140324,16.2945321 L29.1991135,16.3625321 L29.1653838,16.3721547 L29.1556541,16.3529094 L29.1413838,16.4061547 L29.0538162,16.4061547 L29.0492757,16.3477774 L29.1024649,16.3330226 L29.1219243,16.3041547 L29.1361946,16.2265321 L29.1991135,16.2265321 L29.2814919,16.2021547 C29.2860324,16.1194 29.3301405,16.1386453 29.3301405,16.1386453 L29.3586811,16.1630226 L29.4021405,16.1970226 L29.4073297,16.2265321 L29.3781405,16.2406453 L29.3736,16.2797774 L29.3878703,16.3330226 L29.4267892,16.3330226 C29.4410595,16.2554 29.5428973,16.2554 29.5720865,16.3041547 L29.600627,16.2361547 C29.5331676,16.2021547 29.5993297,16.1489094 29.6187892,16.1726453 C29.6382486,16.1970226 29.6830054,16.1097774 29.6830054,16.1097774 C29.6830054,16.1097774 29.7167351,16.1534 29.6830054,16.0950226 C29.6492757,16.0366453 29.7070054,16.0077774 29.7070054,16.0077774 C29.6979243,15.9494 29.770573,15.9590226 29.770573,15.9590226 L29.7751135,15.8814 L29.7070054,15.8762679 C29.6927351,15.9449094 29.6350054,15.8865321 29.6635459,15.8717774 C29.6927351,15.8570226 29.7219243,15.8281547 29.7219243,15.8281547 L29.7219243,15.7794 L29.7511135,15.7697774 L29.7556541,15.7210226 L29.8283027,15.7210226 L29.8912216,15.6921547 L29.9054919,15.6677774 L29.9736,15.6626453 L30.0702486,15.5754 L30.0605189,15.5362679 C30.0027892,15.5362679 30.0605189,15.4926453 30.0605189,15.4926453 L30.0702486,15.4201547 Z" id="Fill-23" fill="#FEFEFE"></path>
                    <path d="M28.1198919,16.3818415 L28.032973,16.3722189 L28.0375135,16.4062189 L28.0615135,16.4062189 C28.1004324,16.4742189 28.0667027,16.6390868 28.0667027,16.6390868 C28.0667027,16.6390868 28.0083243,16.6442189 27.9985946,16.6147094 C27.9895135,16.5858415 27.9648649,16.6782189 27.9843243,16.6929736 C28.0037838,16.7070868 28.0712432,16.6929736 28.0764324,16.7462189 C28.080973,16.7994642 28.1198919,16.7122189 28.1198919,16.7122189 L28.1198919,16.3818415 Z" id="Fill-24" fill="#FEFEFE"></path>
                    <polygon id="Fill-25" fill="#FEFEFE" points="28.1489514 16.8821547 28.1152216 16.8680415 28.1197622 16.7949094 28.1489514 16.7897774 28.1534919 16.7557774 28.0808432 16.8045321 28.0328432 16.7756642 28.0328432 16.8917774 28.1100324 16.9937774 28.1392216 16.9257774"></polygon>
                    <polygon id="Fill-26" fill="#FEFEFE" points="28.1584865 17.1007811 28.1584865 17.0520264 28.1247568 17.0571585 28.1195676 17.0962906"></polygon>
                    <polygon id="Fill-27" fill="#FEFEFE" points="28.1149622 17.334034 28.1149622 17.300034 28.0740973 17.3045245 28.0740973 17.3385245"></polygon>
                    <path d="M28.1720432,17.1845623 C28.1830703,17.1845623 28.1928,17.1755811 28.1928,17.164034 C28.1928,17.1524868 28.1830703,17.1435057 28.1720432,17.1435057 C28.1610162,17.1435057 28.1512865,17.1524868 28.1512865,17.164034 C28.1512865,17.1755811 28.1610162,17.1845623 28.1720432,17.1845623" id="Fill-28" fill="#FEFEFE"></path>
                    <path d="M28.2057081,17.2454415 C28.2167351,17.2454415 28.2264649,17.2544226 28.2264649,17.2659698 C28.2264649,17.277517 28.2167351,17.2864981 28.2057081,17.2864981 C28.1946811,17.2864981 28.1849514,17.277517 28.1849514,17.2659698 C28.1849514,17.2544226 28.1946811,17.2454415 28.2057081,17.2454415" id="Fill-29" fill="#FEFEFE"></path>
                    <path d="M28.2068757,16.6905358 C28.2179027,16.6905358 28.2276324,16.699517 28.2276324,16.7110642 C28.2276324,16.7226113 28.2179027,16.7315925 28.2068757,16.7315925 C28.1958486,16.7315925 28.1861189,16.7226113 28.1861189,16.7110642 C28.1861189,16.699517 28.1958486,16.6905358 28.2068757,16.6905358" id="Fill-30" fill="#FEFEFE"></path>
                    <polygon id="Fill-31" fill="#FEFEFE" points="29.7653838 16.1243396 29.7264649 16.1339623 29.6395459 16.216717 29.6350054 16.2552075 29.6103568 16.2898491 29.5818162 16.3623396 29.4799784 16.3674717 29.4605189 16.454717 29.4747892 16.5272075 29.5617081 16.5618491 29.5714378 16.5130943 29.600627 16.4983396 29.6058162 16.4495849 29.624627 16.4155849 29.6538162 16.3815849 29.6635459 16.3430943 29.7121946 16.3135849 29.7699243 16.3039623 29.794573 16.2750943 29.8043027 16.216717 29.8075459 16.1730943 29.8283027 16.1435849 29.8860324 16.1198491 29.8860324 16.0274717 29.8574919 16.0274717 29.8523027 15.9934717 29.7991135 15.9883396 29.7893838 16.012717 29.7653838 16.012717 29.7601946 16.0518491 29.7893838 16.0518491 29.794573 16.080717 29.7751135 16.0999623"></polygon>
                    <path d="M29.9878054,16.3236566 L29.9878054,16.2556566 L29.9780757,16.1927887 L29.905427,16.1587887 L29.8522378,16.2069019 L29.8425081,16.2749019 L29.8425081,16.3185245 L29.7945081,16.3287887 L29.7847784,16.4596566 L29.7458595,16.4744113 L29.7504,16.523166 L29.6972108,16.5372792 L29.6440216,16.552034 L29.6342919,16.6149019 L29.5960216,16.6392792 L29.5765622,16.6976566 L29.5525622,16.8387887 C29.5525622,16.8387887 29.5960216,16.9209019 29.6200216,16.8824113 C29.6440216,16.8432792 29.6829405,16.8387887 29.6829405,16.8387887 L29.6972108,16.8047887 L29.8282378,16.8092792 C29.8379676,16.756034 29.9008865,16.7752792 29.9008865,16.7996566 C29.9008865,16.824034 29.9488865,16.8047887 29.9488865,16.8047887 L29.9832649,16.7509019 L30.0364541,16.7509019 L30.0409946,16.693166 L30.0649946,16.6784113 L30.0649946,16.5905245 C30.1428324,16.5667887 30.1331027,16.4936566 30.1331027,16.4936566 L30.1525622,16.4692792 L30.1428324,16.4352792 C30.1039135,16.4205245 30.123373,16.3865245 30.147373,16.3967887 C30.1720216,16.4064113 30.1136432,16.3525245 30.1136432,16.3525245 C30.0844541,16.3769019 30.0604541,16.3236566 30.0604541,16.3236566 L29.9878054,16.3236566 Z" id="Fill-32" fill="#FEFEFE"></path>
                    <path d="M30.0652541,16.9113434 C30.0607135,16.9697208 29.9880649,16.988966 29.9880649,16.988966 L29.9348757,16.9742113 L29.9056865,16.9504755 L29.9004973,16.8824755 L29.9439568,16.8773434 L29.9536865,16.9062113 L30.0652541,16.9113434 Z" id="Fill-33" fill="#FEFEFE"></path>
                    <path d="M30.3267243,16.6006604 C30.3371027,16.643 30.3364541,16.5326604 30.3559135,16.5377925 C30.3747243,16.542283 30.3604541,16.4697925 30.3604541,16.4697925 L30.2735351,16.5326604 C30.3169946,16.5377925 30.3215351,16.5814151 30.3267243,16.6006604 Z" id="Fill-34" fill="#FEFEFE"></path>
                    <path d="M30.5832,16.3478415 C30.6026595,16.3914642 30.5974703,16.4549736 30.6701189,16.5030868 C30.6947676,16.519766 30.6558486,16.5518415 30.6312,16.5370868 C30.6072,16.5229736 30.5397405,16.4158415 30.5397405,16.4158415 L30.5397405,16.3529736 C30.5540108,16.3138415 30.5747676,16.3292377 30.5832,16.3478415 Z" id="Fill-35" fill="#FEFEFE"></path>
                    <polygon id="Fill-36" fill="#FEFEFE" points="30.6170595 17.8001547 30.5833297 17.8245321 30.5976 17.8392868 30.6118703 17.8630226 30.6462486 17.8097774"></polygon>
                    <path d="M30.4620973,17.7469094 L30.4620973,17.8052868" id="Fill-37" fill="#FEFEFE"></path>
                    <polygon id="Fill-38" fill="#FEFEFE" points="31.1619892 17.6765358 31.2009081 17.6521585 31.1853405 17.6277811 31.1464216 17.651517"></polygon>
                    <path d="M32.5626162,18.6892868 L32.6060757,18.7085321 L32.6112649,18.7912868 C32.6689946,18.8496642 32.8577514,18.8009094 32.8577514,18.7861547 C32.8577514,18.7720415 32.8480216,18.6065321 32.8480216,18.6065321 L32.8240216,18.5821547 L32.8188324,18.4609094 C32.8382919,18.3974 32.727373,18.3056642 32.7176432,18.3249094 C32.7079135,18.3441547 32.6449946,18.3294 32.6449946,18.3492868 C32.6449946,18.3685321 32.6060757,18.4654 32.6255351,18.5000415 C32.6449946,18.5340415 32.6112649,18.5340415 32.6060757,18.5680415 C32.6015351,18.6020415 32.5528865,18.6604189 32.5626162,18.6892868 Z" id="Fill-39" fill="#FEFEFE"></path>
                    <path d="M32.4561081,18.4949736 C32.447027,18.5315396 32.4126486,18.5533509 32.3931892,18.5385962 C32.3737297,18.5238415 32.4171892,18.5629736 32.4269189,18.5822189 C32.4366486,18.6021057 32.4658378,18.6021057 32.4755676,18.5822189 C32.4852973,18.5629736 32.4801081,18.5193509 32.4898378,18.5001057 C32.4995676,18.4802189 32.4612973,18.4757283 32.4561081,18.4949736 Z" id="Fill-40" fill="#FEFEFE"></path>
                    <polygon id="Fill-41" fill="#FEFEFE" points="32.2313514 17.6962943 32.2650811 17.6962943 32.2650811 17.603917 32.2313514 17.603917"></polygon>
                    <path d="M32.7321081,16.6685962 C32.7107027,16.6403698 32.8287568,16.5909736 32.8482162,16.6493509 C32.8676757,16.7070868 32.8482162,16.6974642 32.8287568,16.6929736 C32.8092973,16.6878415 32.7612973,16.7077283 32.7321081,16.6685962 Z" id="Fill-42" fill="#FEFEFE"></path>
                    <polygon id="Fill-43" fill="#FEFEFE" points="32.8361514 16.0179132 32.8309622 16.0467811 32.8841514 16.0564038 32.8893405 16.0275358"></polygon>
                    <polygon id="Fill-44" fill="#FEFEFE" points="32.7150486 16.0599962 32.7007784 16.0676943 32.6644541 16.0882226 32.6333189 16.0683358 32.6177514 16.0927132 32.6566703 16.1170906 32.6638054 16.1215811 32.6709405 16.1177321 32.7001297 16.1016943 32.7040216 16.1106755 32.7312649 16.0997698 32.7208865 16.0753925"></polygon>
                    <path d="M32.8820108,14.9197132 L32.8093622,14.9197132 C32.8093622,14.9197132 32.8333622,14.9293358 32.7659027,14.8664679 C32.6977946,14.8029585 32.6543351,14.8805811 32.6543351,14.8805811 L32.5771459,14.8908453 L32.5771459,14.9684679 L32.538227,14.9825811 L32.5434162,15.0313358 L32.5966054,15.0268453 C32.5966054,15.0268453 32.5966054,15.0845811 32.6108757,15.0608453 C32.6257946,15.0364679 32.7464432,15.0653358 32.7367135,15.1237132 C32.7328216,15.1474491 32.8580108,15.2109585 32.8430919,15.2885811 C32.9060108,15.2988453 32.8917405,15.3617132 32.8917405,15.3617132 L32.9741189,15.3713358 L32.9981189,15.3225811 L33.0221189,15.3277132 L33.0221189,15.2988453 L32.9689297,15.2840906 L32.9592,15.1288453 L32.9254703,15.1044679 L32.9352,15.0653358 L32.8962811,15.0505811 L32.9157405,14.9877132 L32.8820108,14.9197132 Z" id="Fill-45" fill="#FEFEFE"></path>
                    <path d="M33.0948324,15.4152792 L33.0559135,15.4107887 L32.9689946,15.4249019 L32.9203459,15.5172792 C32.9203459,15.5172792 32.9449946,15.532034 32.9638054,15.566034 C32.9832649,15.600034 32.9929946,15.7989019 32.9352649,15.8329019 C32.8768865,15.8669019 32.9398054,15.8476566 32.9398054,15.8476566 L32.9300757,15.9547887 C32.9449946,16.0029019 32.9689946,15.9785245 32.9832649,15.9547887 C32.9981838,15.9304113 33.0124541,15.9252792 33.0319135,15.9009019 C33.051373,15.8765245 33.0805622,15.8329019 33.0851027,15.7989019 C33.0896432,15.7649019 33.1142919,15.7116566 33.099373,15.6969019 C33.0851027,15.6827887 33.1142919,15.6147887 33.1142919,15.6147887 C33.1142919,15.6147887 33.1337514,15.5756566 33.1142919,15.5365245 C33.0948324,15.498034 33.1188324,15.4544113 33.1337514,15.4345245 L33.0948324,15.4152792 Z" id="Fill-46" fill="#FEFEFE"></path>
                    <polygon id="Fill-47" fill="#FEFEFE" points="33.1534054 15.6134415 33.1585946 15.5743094 33.1871351 15.5781585 33.1819459 15.6172906"></polygon>
                    <polygon id="Fill-48" fill="#FEFEFE" points="33.1515892 15.7476453 33.1256432 15.7348151 33.1399135 15.7053057 33.1658595 15.7187774"></polygon>
                    <path d="M33.109427,15.3619698 L33.0899676,15.3183472 C33.0899676,15.3183472 33.0899676,15.2792151 33.0996973,15.2599698 C33.109427,15.2407245 33.0802378,15.2208377 33.0659676,15.2163472 C33.0510486,15.2112151 33.0562378,15.1727245 33.0510486,15.1528377 C33.0465081,15.1335925 33.0127784,15.1188377 33.0127784,15.1188377 C33.0127784,15.1188377 33.0030486,15.0463472 33.0030486,15.0315925 C33.0030486,15.0168377 32.9595892,14.9975925 32.9738595,14.9828377 C32.9887784,14.9687245 32.9978595,14.9488377 33.0127784,14.9392151 C33.0270486,14.9295925 32.9978595,14.8615925 33.0225081,14.8763472 C33.0465081,14.8904604 33.0465081,14.9148377 33.0562378,14.9347245 C33.0659676,14.9539698 33.0510486,15.0219698 33.0756973,15.0367245 C33.0996973,15.0508377 33.0705081,15.0995925 33.109427,15.0995925 C33.1483459,15.0995925 33.1236973,15.1919698 33.1236973,15.1919698 C33.1236973,15.1919698 33.1139676,15.2599698 33.1386162,15.2651019 C33.1626162,15.2695925 33.1483459,15.3863472 33.1483459,15.3863472 L33.109427,15.3619698 Z" id="Fill-49" fill="#FEFEFE"></path>
                    <path d="M32.7949622,14.5747736 C32.8092324,14.5940189 32.8384216,14.6087736 32.8384216,14.6280189 C32.8384216,14.6479057 32.8286919,14.6620189 32.8578811,14.6671509 C32.8870703,14.6716415 32.9065297,14.6620189 32.9162595,14.6863962 C32.9253405,14.7107736 32.9253405,14.7499057 32.9208,14.7691509 C32.9162595,14.7883962 32.9253405,14.8179057 32.9499892,14.8179057 C32.9739892,14.8179057 32.9785297,14.8223962 32.9785297,14.8371509 C32.9785297,14.8519057 33.0077189,14.7839057 33.0077189,14.7839057 C32.9837189,14.7640189 32.9642595,14.7203962 32.9642595,14.7203962 C32.9642595,14.7203962 32.9402595,14.6523962 32.9402595,14.6427736 C32.9402595,14.6331509 32.9065297,14.6235283 32.8916108,14.6183962 C32.8773405,14.6139057 32.8526919,14.5696415 32.8526919,14.5696415 L32.7949622,14.5747736 Z" id="Fill-50" fill="#FEFEFE"></path>
                    <path d="M32.8432865,14.5312792 C32.8290162,14.512034 32.8140973,14.4972792 32.7946378,14.4876566 C32.775827,14.478034 32.7609081,14.4684113 32.7414486,14.4684113 C32.7219892,14.4684113 32.7031784,14.4485245 32.7122595,14.4241472 C32.7219892,14.4004113 32.6979892,14.3901472 32.6979892,14.3709019 C32.6979892,14.3516566 32.7122595,14.3516566 32.7369081,14.3664113 C32.7609081,14.3805245 32.7563676,14.3856566 32.775827,14.410034 C32.7946378,14.4344113 32.8043676,14.4581472 32.823827,14.4536566 C32.8432865,14.4485245 32.8575568,14.4972792 32.8770162,14.4825245 C32.8964757,14.4684113 32.8919351,14.5165245 32.8919351,14.5165245 L32.8432865,14.5312792 Z" id="Fill-51" fill="#FEFEFE"></path>
                    <path d="M32.2770162,15.0800906 C32.3036108,15.107034 32.1317189,15.0993358 32.1317189,15.0800906 C32.1317189,15.0608453 32.1466378,14.9928453 32.1900973,15.0069585 C32.2335568,15.0217132 32.2380973,14.9197132 32.2380973,14.9197132 C32.2380973,14.9197132 32.199827,14.9248453 32.2335568,14.9049585 C32.2672865,14.8857132 32.2335568,14.8568453 32.2186378,14.8420906 C32.2043676,14.8273358 32.1900973,14.8029585 32.1900973,14.8029585 L32.2575568,14.8029585 C32.2867459,14.7837132 32.2964757,14.6913358 32.2964757,14.6913358 C32.3542054,14.7105811 32.3833946,14.6720906 32.3833946,14.6720906 C32.3833946,14.6720906 32.3931243,14.7009585 32.4125838,14.7253358 C32.4320432,14.7497132 32.3639351,14.7593358 32.3885838,14.7740906 C32.4125838,14.7888453 32.4223135,14.8324679 32.4125838,14.8465811 C32.4028541,14.8613358 32.3496649,14.8517132 32.3496649,14.8324679 C32.3496649,14.8125811 32.3302054,14.8568453 32.3496649,14.8812226 C32.3691243,14.9049585 32.3256649,14.9389585 32.3159351,14.9389585 C32.3062054,14.9389585 32.2432865,14.9492226 32.2964757,14.9780906 C32.3496649,15.0069585 32.4080432,14.9928453 32.4080432,14.9928453 C32.4080432,14.9928453 32.4515027,14.9877132 32.465773,15.0120906 C32.4800432,15.0364679 32.4612324,15.0409585 32.4365838,15.0409585 C32.4125838,15.0409585 32.2964757,15.0313358 32.2964757,15.0313358 C32.2964757,15.0313358 32.2627459,15.0653358 32.2770162,15.0800906 Z" id="Fill-52" fill="#FEFEFE"></path>
                    <path d="M31.9672865,15.1238415 C31.9912865,15.1187094 32.0496649,15.1142189 32.0593946,15.1289736 C32.0691243,15.1430868 32.0256649,15.1623321 32.0256649,15.1623321 L31.9672865,15.1725962 C31.947827,15.1482189 31.9432865,15.1289736 31.9672865,15.1238415 Z" id="Fill-53" fill="#FEFEFE"></path>
                    <path d="M32.5917405,14.7158415 C32.6306595,14.6965962 32.7123892,14.6965962 32.7078486,14.6670868 C32.7033081,14.6382189 32.7564973,14.6285962 32.7564973,14.6285962 L32.7707676,14.6869736 L32.814227,14.7158415 L32.8194162,14.7690868 C32.8194162,14.7690868 32.8336865,14.7594642 32.7804973,14.7742189 C32.7273081,14.7889736 32.7610378,14.8127094 32.7610378,14.8127094 L32.6449297,14.8178415 L32.6306595,14.7690868 L32.5917405,14.7158415 Z" id="Fill-54" fill="#FEFEFE"></path>
                    <path d="M32.4027892,14.4535283 C32.4319784,14.4535283 32.3930595,14.5651509 32.4702486,14.5555283 C32.5480865,14.5459057 32.4754378,14.5895283 32.5331676,14.5946604 C32.5915459,14.5991509 32.5772757,14.5503962 32.5960865,14.5163962 C32.6155459,14.4823962 32.6058162,14.4631509 32.5720865,14.4535283 C32.5383568,14.4439057 32.5383568,14.4439057 32.528627,14.4047736 C32.5188973,14.366283 32.4799784,14.3560189 32.4799784,14.3560189 L32.4657081,14.298283 L32.4027892,14.3367736 L32.3398703,14.4195283 C32.3398703,14.4823962 32.3736,14.4535283 32.4027892,14.4535283 Z" id="Fill-55" fill="#FEFEFE"></path>
                    <polygon id="Fill-56" fill="#FEFEFE" points="32.5308973 14.8640302 32.5451676 14.8351623 32.5717622 14.8479925 32.5568432 14.8768604"></polygon>
                    <polygon id="Fill-57" fill="#FEFEFE" points="32.4804324 14.8518415 32.5096216 14.8518415 32.5096216 14.8178415 32.4804324 14.8178415"></polygon>
                    <polygon id="Fill-58" fill="#FEFEFE" points="32.5046919 14.1705585 32.5098811 14.2141811 32.4806919 14.2173887 32.4761514 14.173766"></polygon>
                    <polygon id="Fill-59" fill="#FEFEFE" points="32.4220541 14.6478415 32.4512432 14.6478415 32.4512432 14.6234642 32.4220541 14.6234642"></polygon>
                    <polygon id="Fill-60" fill="#FEFEFE" points="32.3460973 14.6229509 32.3435027 14.594083 32.3915027 14.5889509 32.3947459 14.6184604"></polygon>
                    <polygon id="Fill-61" fill="#FEFEFE" points="31.9468541 15.0900981 31.9202595 15.0785509 31.9345297 15.0445509 31.9611243 15.0560981"></polygon>
                    <polygon id="Fill-62" fill="#FEFEFE" points="31.7949405 15.0016981 31.7923459 14.9728302 31.8403459 14.9676981 31.8435892 14.9972075"></polygon>
                    <polygon id="Fill-63" fill="#FEFEFE" points="30.9550703 14.992717 30.8486919 14.9972075 30.8499892 15.026717 30.9563676 15.0215849"></polygon>
                    <polygon id="Fill-64" fill="#FEFEFE" points="30.7775351 15.0348642 30.7678054 14.9912415 30.7963459 14.9848264 30.8060757 15.0284491"></polygon>
                    <polygon id="Fill-65" fill="#FEFEFE" points="30.7571676 15.0650151 30.7480865 15.0374302 30.7623568 15.0322981 30.7714378 15.059883"></polygon>
                    <path d="M30.9992432,14.9830302 L30.9947027,15.0170302 L31.0478919,15.0221623 C31.0478919,15.0221623 31.0718919,15.0414075 31.0718919,15.0561623 C31.0718919,15.0702755 31.1056216,15.0850302 31.1250811,15.0850302 C31.1445405,15.0850302 31.1977297,15.0458981 31.1977297,15.0458981 C31.1977297,15.0458981 31.2217297,14.9778981 31.2022703,14.9830302 C31.1828108,14.9875208 31.1445405,15.0170302 31.1393514,14.9875208 C31.1348108,14.9586528 31.0764324,14.9734075 31.0764324,14.9734075 L30.9992432,14.9830302 Z" id="Fill-66" fill="#FEFEFE"></path>
                    <path d="M31.2411892,14.9295283 C31.2411892,14.944283 31.2314595,14.9635283 31.2606486,14.9686604 C31.2898378,14.9731509 31.343027,14.9487736 31.3475676,14.978283 C31.3527568,15.0071509 31.3527568,15.0270377 31.391027,15.0411509 C31.4299459,15.0559057 31.4539459,15.0610377 31.4831351,15.0610377 C31.5123243,15.0610377 31.5752432,15.0507736 31.5752432,15.0507736 C31.5752432,15.0507736 31.644,15.0616792 31.6576216,15.0751509 C31.7108108,15.1283962 31.7445405,15.1431509 31.7588108,15.1187736 C31.7737297,15.0943962 31.7542703,15.0411509 31.7497297,15.0219057 C31.7445405,15.0026604 31.6770811,14.910283 31.6524324,14.9295283 C31.6284324,14.9487736 31.6238919,14.9295283 31.5797838,14.944283 C31.5363243,14.9583962 31.4442162,14.9487736 31.4396757,14.9295283 C31.4351351,14.910283 31.367027,14.9006604 31.367027,14.8807736 C31.367027,14.8615283 31.319027,14.8371509 31.3235676,14.8666604 C31.3281081,14.8955283 31.2898378,14.910283 31.2801081,14.9006604 C31.2703784,14.8903962 31.2411892,14.9295283 31.2411892,14.9295283 Z" id="Fill-67" fill="#FEFEFE"></path>
                    <path d="M32.3544649,14.3075849 L32.3881946,14.2010943 C32.3401946,14.1908302 32.3499243,14.1375849 32.3499243,14.1375849 C32.3447351,14.0939623 32.2772757,14.0452075 32.252627,14.0599623 C32.228627,14.074717 32.2383568,13.9579623 32.2383568,13.9579623 C32.2383568,13.9579623 32.2818162,13.9284528 32.3012757,13.9432075 C32.3207351,13.9579623 32.1365189,13.700717 32.0982486,13.7244528 C32.0593297,13.7488302 31.9724108,13.700717 31.9769514,13.6564528 C31.9821405,13.6128302 31.8031135,13.4672075 31.8031135,13.4672075 C31.8031135,13.4672075 31.7447351,13.428717 31.7350054,13.4575849 C31.7252757,13.4864528 31.7058162,13.5063396 31.7350054,13.5204528 C31.7641946,13.5352075 31.7590054,13.496717 31.7933838,13.5300755 C31.8271135,13.5640755 31.8900324,13.6083396 31.8660324,13.6372075 C31.8413838,13.666717 31.8121946,13.6763396 31.8121946,13.6763396 L31.846573,13.7148302 L31.8997622,13.7148302 L31.9094919,13.7975849 C31.9094919,13.7975849 31.9672216,13.8264528 31.9821405,13.8604528 C31.9964108,13.8944528 31.9964108,13.9143396 31.9821405,13.9335849 C31.9672216,13.9528302 31.9386811,13.9868302 31.9432216,14.0208302 C31.9477622,14.0548302 31.9866811,14.0695849 31.9866811,14.0695849 L32.0256,14.074717 L32.0547892,14.0888302 L32.0547892,14.1523396 C32.0930595,14.142717 32.1559784,14.1959623 32.1514378,14.2299623 C32.1462486,14.2639623 32.1611676,14.244717 32.2091676,14.278717 C32.2578162,14.312717 32.2435459,14.3172075 32.2772757,14.3415849 C32.3110054,14.3659623 32.3401946,14.3512075 32.3544649,14.3075849 Z" id="Fill-68" fill="#FEFEFE"></path>
                    <path d="M31.5559135,13.6470226 C31.551373,13.6277774 31.5416432,13.5597774 31.5701838,13.5642679 C31.599373,13.5694 31.5799135,13.5642679 31.6142919,13.5790226 C31.6480216,13.5937774 31.6525622,13.5546453 31.6525622,13.5546453 L31.7057514,13.5546453 L31.7738595,13.6078906 L31.7641297,13.6521547 L31.7154811,13.6566453 C31.6914811,13.6181547 31.6428324,13.6322679 31.6525622,13.6662679 C31.6622919,13.7002679 31.6285622,13.7637774 31.6091027,13.7682679 C31.5896432,13.7734 31.5267243,13.7734 31.5319135,13.7438906 C31.5364541,13.7150226 31.5559135,13.6470226 31.5559135,13.6470226 Z" id="Fill-69" fill="#FEFEFE"></path>
                    <path d="M31.5171892,13.5157698 L31.5171892,13.4766377 C31.5171892,13.4766377 31.512,13.4381472 31.488,13.4381472 C31.464,13.4381472 31.4205405,13.4092792 31.4302703,13.3893925 C31.44,13.3701472 31.3478919,13.3509019 31.3478919,13.3509019 C31.3478919,13.3509019 31.2655135,13.2726377 31.2947027,13.2829019 C31.3238919,13.2925245 31.308973,13.2489019 31.308973,13.2489019 C31.308973,13.2489019 31.2512432,13.2585245 31.2363243,13.2533925 C31.2220541,13.2489019 31.2265946,13.2046377 31.2265946,13.2046377 C31.2265946,13.2046377 31.1688649,13.1905245 31.1688649,13.2046377 C31.1688649,13.2193925 31.1883243,13.2193925 31.1974054,13.2489019 C31.2071351,13.2777698 31.2025946,13.3265245 31.2460541,13.3361472 C31.2895135,13.3457698 31.2992432,13.3553925 31.3044324,13.3746377 C31.308973,13.3945245 31.3621622,13.3990151 31.3621622,13.3990151 L31.4010811,13.4189019 L31.5171892,13.5157698 Z" id="Fill-70" fill="#FEFEFE"></path>
                    <polygon id="Fill-71" fill="#FEFEFE" points="30.994573 13.0203962 30.9803027 12.9812642 30.9413838 12.9716415 30.9413838 13.0152642"></polygon>
                    <path d="M30.9800432,12.8163962 C30.9294486,12.7785472 31.0475027,12.8452642 31.0475027,12.8452642 C31.0864216,12.8452642 31.1104216,12.8747736 31.1104216,12.8895283 C31.1104216,12.9036415 31.1636108,12.8991509 31.1636108,12.8991509 L31.1688,12.8651509 L31.1298811,12.8163962 L31.0961514,12.7920189 C31.0961514,12.7920189 31.0429622,12.7875283 31.0429622,12.7727736 C31.0429622,12.7580189 30.9995027,12.8311509 30.9800432,12.8163962 Z" id="Fill-72" fill="#FEFEFE"></path>
                    <path d="M31.8703135,12.8454566 C31.8560432,12.8877962 31.8508541,12.9474566 31.8268541,12.9474566 C31.8028541,12.9474566 31.8119351,13.010966 31.8119351,13.010966 C31.8119351,13.010966 31.8755027,13.010966 31.8943135,13.0154566 C31.913773,13.0205887 31.913773,13.0687019 31.913773,13.0687019 C31.9864216,13.0642113 32.0156108,13.1610792 32.0058811,13.1854566 C31.9961514,13.209834 32.0350703,13.209834 32.0350703,13.209834 C32.0350703,13.209834 32.0350703,13.2874566 32.0253405,13.3067019 C32.0156108,13.3265887 32.0882595,13.3407019 32.1077189,13.3702113 C32.1265297,13.3990792 32.0979892,13.4965887 32.0830703,13.5010792 C32.0688,13.5062113 32.1219892,13.520966 32.1168,13.5447019 C32.1122595,13.5690792 32.1317189,13.5447019 32.1362595,13.583834 C32.1414486,13.622966 32.1511784,13.7050792 32.1511784,13.7050792 L32.2186378,13.7102113 C32.2283676,13.6467019 32.3529081,13.6447774 32.3736649,13.651834 C32.4560432,13.6807019 32.5189622,13.8070792 32.5189622,13.8365887 C32.5189622,13.8654566 32.465773,13.8705887 32.465773,13.8705887 L32.4755027,14.0110792 C32.5572324,14.0354566 32.6253405,14.1522113 32.6156108,14.1714566 C32.6058811,14.1913434 32.6733405,14.1862113 32.6733405,14.1862113 C32.6830703,14.098966 32.7654486,14.127834 32.7706378,14.1573434 C32.7751784,14.1862113 32.7900973,14.2490792 32.7900973,14.2490792 L32.8140973,14.2933434 L32.847827,14.3273434 L32.9010162,14.3222113 L32.9159351,14.3510792 L32.9788541,14.3613434 C32.9788541,14.3613434 33.0320432,14.4190792 33.0365838,14.433834 C33.041773,14.4485887 33.1144216,14.4434566 33.1332324,14.4485887 C33.1526919,14.4530792 33.1818811,14.467834 33.1864216,14.4922113 C33.1916108,14.5165887 33.2208,14.5550792 33.2208,14.5550792 C33.2208,14.5550792 33.2785297,14.569834 33.2837189,14.5890792 C33.2882595,14.608966 33.3122595,14.6525887 33.3122595,14.6525887 L33.3609081,14.6917208 L33.3654486,14.7353434 L33.4186378,14.739834 L33.4335568,14.7982113 L33.5204757,14.7937208 L33.5691243,14.7597208 C33.6320432,14.7257208 33.6755027,14.6814566 33.6800432,14.6622113 C33.6852324,14.642966 33.6949622,14.569834 33.7429622,14.5845887 C33.7916108,14.5993434 33.7578811,14.4774566 33.7578811,14.4774566 C33.7578811,14.4774566 33.689773,14.4293434 33.6949622,14.404966 C33.6995027,14.3805887 33.6268541,14.331834 33.6320432,14.3125887 C33.6365838,14.2933434 33.5691243,14.2542113 33.5736649,14.234966 C33.5788541,14.2150792 33.5399351,14.161834 33.5399351,14.161834 L33.4672865,14.093834 L33.4575568,14.0502113 L33.399827,14.0450792 L33.2837189,13.9045887 L33.2882595,13.8654566 L33.2545297,13.860966 L33.2545297,13.8070792 L33.2208,13.787834 L33.1676108,13.7827019 L33.0605838,13.6665887 L33.0515027,13.6127019 L32.9976649,13.6127019 L33.0073946,13.5107019 C33.041773,13.4670792 33.0223135,13.384966 33.0223135,13.384966 C33.0223135,13.384966 32.9542054,13.418966 32.9204757,13.4042113 C32.8867459,13.3894566 32.9347459,13.3554566 32.9347459,13.3554566 L32.9347459,13.316966 L32.9062054,13.2874566 C32.9062054,13.2874566 32.823827,13.2970792 32.8186378,13.282966 C32.8140973,13.2682113 32.799827,13.2047019 32.799827,13.2047019 L32.7946378,13.1225887 L32.7609081,13.107834 L32.7557189,13.078966 L32.7025297,13.0834566 L32.7025297,13.0250792 L32.6739892,13.0154566 L32.6448,13.0007019 L32.6396108,12.9423245 L32.5332324,12.937834 L32.4995027,12.8890792 L32.4605838,12.8307019 L32.3399351,12.8210792 L32.3107459,12.7922113 L32.2620973,12.7825887 L32.2283676,12.767834 L32.2140973,12.7922113 L32.1219892,12.7967019 L32.1174486,12.8262113 C32.0688,12.8505887 31.8755027,12.8307019 31.8703135,12.8454566 Z" id="Fill-73" fill="#FEFEFE"></path>
                    <path d="M32.3786595,12.7193358 C32.3708757,12.6808453 32.4753081,12.6462038 32.4999568,12.6757132 C32.5239568,12.7045811 32.5914162,12.7097132 32.6011459,12.8553358 C32.6050378,12.9072981 32.514227,12.8020906 32.514227,12.8020906 L32.4415784,12.7777132 C32.4026595,12.7680906 32.3832,12.7437132 32.3786595,12.7193358 Z" id="Fill-74" fill="#FEFEFE"></path>
                    <polygon id="Fill-75" fill="#FEFEFE" points="30.9591568 12.7786755 30.9325622 12.7671283 30.9520216 12.7228642 30.9786162 12.7350528"></polygon>
                    <path d="M30.708973,12.3015208 L30.6460541,12.2386528 L30.6460541,12.184766 L30.6265946,12.1655208 L30.6071351,12.0975208 L30.5442162,12.0782755 L30.4812973,12.1020113 L30.4138378,12.1462755 L30.3411892,12.1558981 L30.3022703,12.1995208 L30.4572973,12.2142755 L30.4864865,12.2623887 L30.5974054,12.2726528 L30.6700541,12.3451434 C30.732973,12.3643887 30.7478919,12.3355208 30.708973,12.3015208" id="Fill-76" fill="#FEFEFE"></path>
                    <path d="M30.699373,12.0634566 C30.6889946,12.0204755 30.6267243,12.1167019 30.6896432,12.1359472 C30.7525622,12.155834 30.8154811,12.1359472 30.8154811,12.1359472 L30.8297514,12.1070792 L31.0716973,12.1122113 C31.0911568,12.0923245 31.1008865,12.0634566 31.1008865,12.0634566 C31.1008865,12.0634566 31.1592649,12.0442113 31.1832649,12.053834 C31.2072649,12.0634566 31.1884541,11.985834 31.1638054,11.9954566 C31.1398054,12.0050792 31.0911568,12.0005887 31.0911568,12.0005887 L31.0042378,12.0005887 C30.9996973,11.9665887 30.9218595,11.9807019 30.9173189,12.0005887 C30.9121297,12.019834 30.8835892,12.0243245 30.8835892,12.0243245 L30.7720216,12.0345887 C30.7622919,12.0634566 30.7045622,12.0827019 30.699373,12.0634566 Z" id="Fill-77" fill="#FEFEFE"></path>
                    <path d="M30.2201514,12.8831774 C30.2947459,12.9062717 30.3219892,12.8889509 30.3265297,12.8697057 C30.3317189,12.8504604 30.3362595,12.8453283 30.3654486,12.8408377 C30.3946378,12.8357057 30.3602595,12.7773283 30.3317189,12.7824604 C30.3025297,12.7869509 30.2733405,12.7728377 30.2688,12.7484604 C30.2636108,12.724083 30.2149622,12.6612151 30.2104216,12.7093283 C30.2058811,12.758083 30.1766919,12.758083 30.1812324,12.792083 C30.1864216,12.826083 30.2006919,12.8767623 30.2201514,12.8831774 Z" id="Fill-78" fill="#FEFEFE"></path>
                    <path d="M29.6638054,12.9378981 C29.6605622,12.9205774 29.7604541,12.9186528 29.775373,12.932766 C29.7896432,12.9475208 29.7799135,12.9718981 29.823373,12.9718981 C29.8668324,12.9718981 29.847373,13.000766 29.8428324,13.0155208 C29.8382919,13.0302755 29.7896432,13.0251434 29.7844541,13.0110302 C29.7799135,12.9962755 29.7072649,12.9911434 29.7072649,12.9911434 C29.7072649,12.9911434 29.6683459,12.9622755 29.6638054,12.9378981 Z" id="Fill-79" fill="#FEFEFE"></path>
                    <polygon id="Fill-80" fill="#FEFEFE" points="31.3097514 11.8966 31.2714811 11.9273925 31.2468324 11.9023736 31.2260757 11.9229019 31.2598054 11.9569019 31.2695351 11.9665245 31.2792649 11.9581849 31.3279135 11.9190528"></polygon>
                    <polygon id="Fill-81" fill="#FEFEFE" points="31.0428973 11.8081358 31.0117622 11.7888906 30.9968432 11.8132679 31.0351135 11.8376453 31.0428973 11.8427774 31.0506811 11.8376453 31.1038703 11.8036453 31.0883027 11.7792679"></polygon>
                    <polygon id="Fill-82" fill="#FEFEFE" points="30.8868973 12.8074792 30.8797622 12.8068377 30.8317622 12.8017057 30.8285189 12.8305736 30.8700324 12.8350642 30.8998703 12.8825358 30.9245189 12.8664981 30.8907892 12.8132528"></polygon>
                    <path d="M29.286227,14.1618981 L29.2914162,14.2151434 L29.3634162,14.2151434 C29.3926054,14.2151434 29.3394162,14.1811434 29.3394162,14.1811434 C29.3394162,14.1811434 29.2816865,14.1862755 29.286227,14.1618981 Z" id="Fill-83" fill="#FEFEFE"></path>
                    <polygon id="Fill-84" fill="#FEFEFE" points="29.3784649 14.1634377 29.3972757 14.1409849 29.4258162 14.1653623 29.4076541 14.1878151"></polygon>
                    <polygon id="Fill-85" fill="#FEFEFE" points="28.4966919 13.2546113 28.5174486 13.234083 28.5459892 13.2629509 28.5258811 13.2834792"></polygon>
                    <polygon id="Fill-86" fill="#FEFEFE" points="29.9025081 19.5068906 29.8538595 19.4825132 29.8408865 19.5088151 29.871373 19.5235698 29.8616432 19.533834 29.8824 19.5543623 29.9064 19.5299849 29.9206703 19.5158717"></polygon>
                    <polygon id="Fill-87" fill="#FEFEFE" points="29.5277189 19.1570755 29.5095568 19.1346226 29.4803676 19.159 29.4654486 19.1711887 29.4810162 19.1820943 29.5147459 19.2064717 29.5316108 19.1827358 29.5128 19.1692642"></polygon>
                    <path d="M33.1265514,18.2355472 C33.1200649,18.2105283 33.092173,18.2009057 33.0889297,18.1996226 L33.0792,18.2272075 L33.0792,18.2272075 C33.0817946,18.2278491 33.0850378,18.2297736 33.0882811,18.2316981 L33.0941189,18.2573585 C33.092173,18.260566 33.0895784,18.2631321 33.0882811,18.2656981 L33.1090378,18.2849434 C33.1246054,18.2682642 33.1304432,18.2515849 33.1265514,18.2355472 Z" id="Fill-88" fill="#FEFEFE"></path>
                    <polygon id="Fill-89" fill="#FEFEFE" points="33.1711784 18.1438113 33.123827 18.1406038 33.1277189 18.0963396 33.1750703 18.1040377"></polygon>
                    <path d="M34.2928865,17.7650642 C34.3136432,17.752234 34.3402378,17.7284981 34.3363459,17.7830264 C34.3331027,17.8381962 34.3110486,17.8195925 34.2928865,17.8381962 C34.2747243,17.8561585 34.2636973,17.7830264 34.2928865,17.7650642" id="Fill-90" fill="#FEFEFE"></path>
                    <path d="M34.5391784,17.558883 C34.5385297,17.5576 34.5385297,17.5543925 34.5385297,17.5518264 C34.5378811,17.5441283 34.5365838,17.5332226 34.5307459,17.5216755 L34.5048,17.5345057 C34.5080432,17.5409208 34.5086919,17.5479774 34.5093405,17.5543925 C34.5099892,17.5633736 34.5112865,17.5729962 34.5190703,17.5794113 C34.5242595,17.5832604 34.5307459,17.5839019 34.5391784,17.5826189 L34.5333405,17.5543925 C34.5352865,17.555034 34.5385297,17.5569585 34.5391784,17.558883 Z" id="Fill-91" fill="#FEFEFE"></path>
                    <path d="M34.474573,17.5828113 C34.4817081,17.6123208 34.4927351,17.6411887 34.4933838,17.6424717 L34.520627,17.6322075 C34.5199784,17.6322075 34.5096,17.6033396 34.5024649,17.5757547 L34.474573,17.5828113 Z" id="Fill-92" fill="#FEFEFE"></path>
                    <path d="M34.3688432,17.6973849 L34.3396541,17.6948189 C34.3377081,17.7172717 34.3428973,17.7454981 34.3662486,17.7506302 L34.3714378,17.7217623 C34.3720865,17.7217623 34.3720865,17.7217623 34.3720865,17.7217623 C34.3701405,17.7198377 34.3675459,17.7082906 34.3688432,17.6973849 Z" id="Fill-93" fill="#FEFEFE"></path>
                    <path d="M34.2416432,17.1177811 C34.2403459,17.1081585 34.2345081,17.1011019 34.2260757,17.0972528 C34.2040216,17.0882717 34.1683459,17.1036679 34.1501838,17.1152151 L34.1664,17.1395925 C34.1845622,17.1274038 34.2092108,17.1216302 34.2144,17.1241962 C34.2137514,17.1241962 34.2131027,17.1229132 34.2131027,17.1222717 L34.2416432,17.1177811 Z" id="Fill-94" fill="#FEFEFE"></path>
                    <path d="M32.9012108,15.5658415 C32.8817514,15.5850868 32.8382919,15.5947094 32.8382919,15.5947094 L32.8240216,15.6485962 L32.799373,15.6678415 C32.799373,15.6678415 32.8045622,15.6825962 32.799373,15.7165962 C32.7948324,15.7505962 32.751373,15.7698415 32.751373,15.7698415 L32.7319135,15.7942189 C32.7319135,15.7942189 32.6151568,15.800634 32.6008865,15.7942189 C32.557427,15.7749736 32.5866162,15.7165962 32.6158054,15.7210868 C32.6449946,15.7262189 32.6106162,15.6389736 32.6106162,15.6389736 L32.6495351,15.6338415 C32.6495351,15.6338415 32.6540757,15.5465962 32.6689946,15.5465962 C32.6832649,15.5465962 32.6644541,15.5170868 32.6449946,15.5029736 C32.6255351,15.4882189 32.6008865,15.4394642 32.581427,15.4445962 C32.5626162,15.4490868 32.4847784,15.4445962 32.4847784,15.4445962 L32.4705081,15.4734642 L32.4173189,15.4830868 C32.4173189,15.4830868 32.4218595,15.5209358 32.4127784,15.5318415 C32.3835892,15.5658415 32.2720216,15.6389736 32.3206703,15.5170868 L32.3349405,15.4882189 L32.3349405,15.4445962 L32.2480216,15.4394642 C32.2480216,15.4394642 32.2045622,15.4247094 32.2045622,15.4054642 C32.2045622,15.3862189 32.199373,15.3618415 32.199373,15.3618415 L32.0975351,15.2502189 L31.9768865,15.2354642 L31.9671568,15.2110868 L31.8945081,15.2014642 C31.8075892,15.1578415 31.7297514,15.1969736 31.7446703,15.2694642 C31.7589405,15.3425962 31.7829405,15.3714642 31.7349405,15.3714642 C31.6862919,15.3714642 31.6765622,15.3329736 31.6765622,15.3329736 C31.6765622,15.3329736 31.6382919,15.3182189 31.6382919,15.3374642 C31.6382919,15.3573509 31.623373,15.3958415 31.6382919,15.4150868 C31.6525622,15.4349736 31.6188324,15.4638415 31.6039135,15.4490868 C31.5896432,15.4349736 31.5507243,15.3913509 31.5604541,15.3765962 C31.5701838,15.3618415 31.4929946,15.2694642 31.5701838,15.2553509 C31.6480216,15.2405962 31.5656432,15.1969736 31.5948324,15.1873509 L31.6331027,15.1674642 L31.6720216,15.1674642 L31.6960216,15.1482189 L31.6331027,15.1385962 L31.5948324,15.1334642 L31.5221838,15.1289736 C31.4495351,15.1770868 31.4346162,15.2354642 31.4346162,15.2354642 C31.3963459,15.3085962 31.3042378,15.2065962 31.3379676,15.1674642 C31.3716973,15.1289736 31.2315892,15.1629736 31.2075892,15.1822189 C31.1829405,15.2014642 31.1102919,15.1918415 31.1102919,15.1918415 C31.0960216,15.2354642 31.0285622,15.1873509 31.047373,15.1578415 C31.0668324,15.1289736 31.0668324,15.1090868 31.0668324,15.1090868 L31.0428324,15.1045962 L31.0136432,15.1578415 C30.9461838,15.1578415 30.9267243,15.1969736 30.9409946,15.2213509 C30.9559135,15.2450868 30.9215351,15.2162189 30.9118054,15.2502189 C30.9027243,15.2842189 30.9169946,15.2842189 30.9461838,15.2989736 C30.975373,15.3130868 30.9312649,15.3130868 30.9507243,15.3374642 C30.9701838,15.3618415 31.0285622,15.3374642 30.9941838,15.3714642 C30.9604541,15.4054642 30.8929946,15.3913509 30.8929946,15.3913509 C30.8878054,15.4349736 30.7956973,15.4253509 30.7866162,15.4105962 C30.7768865,15.3958415 30.7042378,15.3085962 30.7042378,15.3085962 L30.6121297,15.3034642 C30.6024,15.2354642 30.6555892,15.2694642 30.6750486,15.2162189 C30.6945081,15.1629736 30.7042378,15.0750868 30.7042378,15.0750868 C30.7042378,15.0750868 30.6264,15.0705962 30.6218595,15.0949736 C30.6173189,15.1193509 30.5686703,15.1334642 30.5686703,15.1334642 C30.5686703,15.1334642 30.5297514,15.1482189 30.5446703,15.1674642 C30.5589405,15.1873509 30.5154811,15.1969736 30.5154811,15.1969736 C30.5154811,15.1969736 30.5226162,15.2284075 30.5102919,15.2405962 C30.4720216,15.2790868 30.3747243,15.2450868 30.3604541,15.2309736 L30.3020757,15.2065962 L30.2443459,15.1674642 L30.1762378,15.1969736 L30.157427,15.2162189 L30.0847784,15.2162189 L30.0795892,15.2745962 L30.2106162,15.2887094 L30.2203459,15.4093132 L30.1671568,15.3907094 L30.1327784,15.3907094 L30.1185081,15.3618415 L30.0893189,15.3567094 L30.0893189,15.4638415 L30.1185081,15.4882189 L30.1425081,15.5125962 L30.1911568,15.5170868 L30.2008865,15.5754642 L30.3215351,15.5805962 L30.3364541,15.6049736 L30.4091027,15.6094642 L30.5492108,15.7505962 L30.5394811,15.7942189 L30.5154811,15.8089736 C30.5252108,15.8429736 30.4525622,15.8230868 30.4525622,15.8230868 L30.4525622,15.8525962 L30.4862919,15.8570868 L30.5200216,15.8769736 L30.5686703,15.7942189 C30.6218595,15.7602189 30.6458595,15.8089736 30.6510486,15.8378415 C30.6555892,15.8667094 30.6264,15.8622189 30.6264,15.8622189 L30.6264,15.9302189 L30.6555892,15.9398415 C30.7042378,15.9982189 30.6361297,16.0322189 30.6361297,16.0322189 L30.6218595,16.0809736 C30.6069405,16.1245962 30.5537514,16.1149736 30.5537514,16.1149736 L30.5349405,16.1438415 L30.4765622,16.1585962 L30.591373,16.1727094 C30.6024,16.1342189 30.6315892,16.1245962 30.6458595,16.1438415 C30.6607784,16.1630868 30.6607784,16.1970868 30.6607784,16.1970868 L30.6893189,16.2022189 L30.6847784,16.2554642 L30.7139676,16.2650868 L30.7139676,16.4209736 L30.7476973,16.4594642 C30.805427,16.4350868 30.805427,16.4742189 30.7768865,16.4934642 C30.7476973,16.5127094 30.7671568,16.6005962 30.7671568,16.6005962 L30.7425081,16.6249736 L30.7425081,16.6634642 L30.7139676,16.6833509 L30.7139676,16.7365962 C30.6653189,16.7122189 30.6069405,16.7218415 30.5926703,16.7365962 C30.5492108,16.7070868 30.4571027,16.7173509 30.4571027,16.7410868 C30.4862919,16.7802189 30.423373,16.7898415 30.423373,16.7898415 L30.3896432,16.8289736 C30.4136432,16.8770868 30.3649946,16.8822189 30.3649946,16.8822189 L30.3649946,16.9745962 L30.3072649,17.0278415 L30.3118054,17.1542189 C30.3118054,17.1882189 30.3844541,17.1933509 30.399373,17.1734642 C30.4136432,17.1542189 30.4720216,17.2125962 30.4720216,17.2125962 L30.5154811,17.2125962 L30.5252108,17.1253509 L30.4960216,17.1105962 L30.4960216,16.9694642 L30.5440216,16.9162189 C30.6024,16.8969736 30.5829405,17.0425962 30.5829405,17.0573509 C30.5881297,17.1105962 30.6121297,17.1054642 30.6361297,17.0958415 C30.6847784,17.0765962 30.6458595,17.1497283 30.6069405,17.1445962 C30.5686703,17.1394642 30.5926703,17.1933509 30.5926703,17.1933509 L30.6166703,17.2029736 L30.5732108,17.2369736 L30.5349405,17.2805962 L30.4862919,17.2658415 L30.4279135,17.2613509 L30.4091027,17.2273509 L30.3747243,17.2222189 L30.3701838,17.2902189 L30.3461838,17.3190868 L30.2878054,17.3774642 C30.3649946,17.3774642 30.2780757,17.4313509 30.2586162,17.4313509 C30.3020757,17.4454642 30.2540757,17.4897283 30.1425081,17.4557283 L30.1425081,17.4897283 L30.1035892,17.4942189 L30.1379676,17.5333509 L30.1762378,17.5378415 L30.1619676,17.6205962 C30.1619676,17.6834642 30.0024,17.6398415 29.9874811,17.6257283 L29.9829405,17.7129736 L29.9537514,17.7174642 L29.9589405,17.7758415 L29.9537514,17.8585962 L30.0069405,17.8489736 L30.0069405,17.8829736 L30.1379676,17.8874642 L30.3267243,17.6885962 L30.4376432,17.6642189 C30.447373,17.6154642 30.4960216,17.6738415 30.4960216,17.6738415 C30.5440216,17.6693509 30.5537514,17.7033509 30.5537514,17.7033509 L30.6166703,17.7129736 C30.6698595,17.7277283 30.6380757,17.7328604 30.6413189,17.7521057 C30.6458595,17.7809736 30.6698595,17.7713509 30.6698595,17.7713509 L30.6795892,17.7078415 L30.7087784,17.7129736 L30.6795892,17.6789736 L30.6264,17.6545962 L30.5686703,17.6302189 C30.5297514,17.5769736 30.5784,17.5865962 30.6166703,17.5917283 L30.6795892,17.5917283 C30.6795892,17.5917283 30.7522378,17.6885962 30.7522378,17.7129736 C30.7522378,17.7373509 30.7866162,17.7418415 30.7866162,17.7418415 L30.8300757,17.7373509 L30.8443459,17.7713509 L30.8878054,17.7713509 L30.9027243,17.8002189 L30.9896432,17.8002189 L30.9941838,17.7565962 L30.9118054,17.7418415 L30.9072649,17.6937283 L30.8495351,17.6789736 C30.8300757,17.5962189 30.8638054,17.5718415 30.8878054,17.6109736 L30.9169946,17.6154642 L30.9072649,17.5429736 L30.9409946,17.5333509 L30.9312649,17.4313509 L30.9027243,17.4210868 L30.9027243,17.3870868 L31.023373,17.3922189 C31.0136432,17.3293509 31.0285622,17.2998415 31.0285622,17.2998415 L31.0622919,17.2998415 L31.0668324,17.3242189 L31.2147243,17.3383321 L31.3198054,17.2190113 C31.3146162,17.2100302 31.3301838,17.2048981 31.3185081,17.1933509 C31.3042378,17.1785962 31.2847784,17.1933509 31.2607784,17.1785962 C31.2361297,17.1638415 31.2607784,17.0810868 31.2555892,17.0618415 C31.2510486,17.0425962 31.3379676,17.0130868 31.3236973,17.0573509 C31.3087784,17.1009736 31.3236973,17.1202189 31.3236973,17.1202189 C31.3866162,17.0618415 31.4398054,17.1253509 31.4346162,17.1394642 C31.4300757,17.1542189 31.4683459,17.1689736 31.4929946,17.1542189 C31.5169946,17.1394642 31.5461838,17.1978415 31.5364541,17.2273509 C31.5267243,17.2562189 31.4398054,17.2510868 31.4346162,17.2222189 C31.4300757,17.1933509 31.4151568,17.2029736 31.4060757,17.2170868 C31.3963459,17.2318415 31.3528865,17.2414642 31.3282378,17.2273509 C31.3236973,17.2241434 31.3211027,17.2215774 31.3198054,17.2190113 L31.2147243,17.3383321 L31.2218595,17.3389736 C31.2795892,17.3729736 31.2510486,17.4165962 31.2315892,17.4262189 C31.2121297,17.4358415 31.1784,17.4358415 31.1784,17.4358415 L31.1686703,17.4557283 L31.0428324,17.4653509 L31.0331027,17.5134642 C30.9701838,17.5038415 30.9461838,17.5718415 30.9604541,17.6058415 C30.975373,17.6398415 30.9604541,17.6693509 30.9604541,17.6693509 L31.0136432,17.6937283 L31.0817514,17.6738415 C31.0914811,17.6250868 31.1349405,17.6154642 31.1732108,17.5865962 C31.2121297,17.5577283 31.2750486,17.6398415 31.2555892,17.6789736 C31.2361297,17.7174642 31.2361297,17.7322189 31.2361297,17.7322189 L31.2413189,17.7758415 L31.1926703,17.7950868 L31.1537514,17.8149736 L31.1492108,17.8393509 L31.0188324,17.8393509 L30.9941838,17.8630868 L30.9312649,17.8682189 L30.9118054,17.8977283 L30.8683459,17.9022189 C30.8683459,17.9022189 30.7956973,17.9362189 30.8248865,17.9753509 C30.8540757,18.0138415 30.7042378,18.0093509 30.6698595,17.9554642 C30.6601297,18.0042189 30.6069405,17.9605962 30.6069405,17.9605962 L30.5537514,17.9458415 L30.5492108,17.8733509 C30.5394811,17.8245962 30.447373,17.8245962 30.4525622,17.8585962 C30.4571027,17.8925962 30.2780757,17.8733509 30.2780757,17.8733509 L30.2196973,17.9009358 L30.1665081,17.9317283 L30.1619676,17.9554642 L30.0744,17.9657283 L30.0361297,17.9849736 L30.0218595,17.9554642 L29.9829405,17.9554642 L29.9440216,18.0093509 C29.8421838,18.0138415 29.7455351,18.0722189 29.7552649,18.0965962 C29.7649946,18.1209736 29.7169946,18.1453509 29.7169946,18.1453509 L29.6728865,18.1594642 L29.6443459,18.2037283 L29.5859676,18.2229736 L29.5762378,18.3249736 L29.5470486,18.3442189 L29.5470486,18.388483 L29.5133189,18.3981057 L29.5133189,18.4218415 L29.4653189,18.4269736 L29.4938595,18.5001057 L29.5327784,18.5193509 C29.6002378,18.5289736 29.5716973,18.6117283 29.5716973,18.6117283 L29.6099676,18.6162189 L29.629427,18.6701057 L29.6683459,18.7477283 C29.6826162,18.8061057 29.7260757,18.7913509 29.7455351,18.7862189 C29.7649946,18.7817283 29.7844541,18.8445962 29.7844541,18.8445962 L29.9777514,18.8497283 C29.9777514,18.8497283 29.9680216,18.8689736 30.0024,18.8785962 C30.0361297,18.8882189 30.2586162,18.898483 30.2683459,18.8837283 C30.2586162,18.8401057 30.3889946,18.830483 30.4428324,18.8689736 C30.4960216,18.9081057 30.5686703,18.8837283 30.5686703,18.8837283 L30.6413189,18.9709736 L30.6893189,19.0781057 L30.7716973,19.102483 L30.829427,19.1165962 L30.8488865,19.1993509 L30.8923459,19.204483 L30.9072649,19.2577283 C30.9604541,19.2968604 30.8923459,19.3789736 30.8923459,19.3789736 L30.8923459,19.4861057 L30.9312649,19.5053509 L30.9267243,19.544483 L30.9896432,19.6073509 L31.0622919,19.612483 L31.2458595,19.8068604 L31.3911568,19.850483 L31.4151568,19.9281057 L31.4540757,19.9229736 L31.4832649,19.8992377 L31.599373,19.8941057 L31.6571027,19.8408604 L31.7200216,19.8312377 L32.2577514,19.3789736 L32.2091027,19.3501057 L32.2091027,19.2429736 C32.2960216,19.1801057 32.3012108,19.068483 32.2188324,19.0588604 C32.1565622,19.0511623 32.1851027,18.9857283 32.2428324,18.9761057 L32.2765622,18.9613509 L32.2765622,18.9177283 L32.3881297,18.8157283 L32.3881297,18.7381057 L32.1461838,18.5385962 C32.0398054,18.5001057 32.1461838,18.2665962 32.2188324,18.2717283 C32.2914811,18.2762189 32.2136432,17.9118415 32.2136432,17.9118415 L32.175373,17.8925962 L32.1851027,17.7758415 L32.1319135,17.7758415 L32.0443459,17.8881057 L32.0203459,17.9657283 C32.0106162,18.0677283 31.7102919,18.0478415 31.6960216,18.0337283 C31.6817514,18.0189736 31.5799135,17.9753509 31.5799135,17.9753509 C31.5799135,17.9753509 31.5027243,17.9118415 31.4878054,17.9317283 C31.4735351,17.9509736 31.405427,17.9073509 31.405427,17.9221057 C31.405427,17.9362189 31.3425081,17.8881057 31.3425081,17.8881057 L31.2458595,17.8541057 L31.3185081,17.8393509 L31.3042378,17.7809736 L31.4300757,17.8438415 C31.4443459,17.8637283 31.5072649,17.8585962 31.5072649,17.8585962 L31.5267243,17.8829736 C31.5267243,17.8829736 31.5656432,17.8778415 31.5896432,17.9073509 C31.6136432,17.9362189 31.7394811,17.912483 31.7394811,17.912483 L31.7732108,17.9413509 L31.8264,17.9605962 L31.9768865,17.9657283 L31.981427,17.8733509 L32.0106162,17.844483 L32.0060757,17.7861057 L32.0398054,17.7565962 L32.0398054,17.708483 L32.0689946,17.6982189 L32.0735351,17.5917283 L32.0975351,17.5865962 L32.0975351,17.3537283 L32.0248865,17.2857283 C32.0203459,17.3101057 31.9431568,17.3101057 31.9431568,17.3101057 C31.9431568,17.3101057 31.9236973,17.3441057 31.9087784,17.3441057 C31.8945081,17.3441057 31.9282378,17.3877283 31.9185081,17.4165962 C31.9087784,17.4461057 31.8705081,17.4461057 31.8705081,17.4461057 L31.7978595,17.4653509 L31.7784,17.4897283 L31.7005622,17.4897283 L31.6914811,17.4262189 L31.7784,17.4018415 L31.8264,17.3781057 L31.8510486,17.3293509 C31.8555892,17.2805962 31.9139676,17.2857283 31.9139676,17.2857283 C31.9139676,17.2857283 32.0248865,17.1933509 32.0300757,17.1497283 C32.0346162,17.1061057 32.0735351,16.9842189 32.1409946,16.9842189 L32.2668324,16.9842189 C32.3154811,16.9649736 32.3012108,16.9021057 32.3012108,16.9021057 L32.3641297,16.8918415 L32.3738595,16.9258415 C32.3738595,16.9258415 32.4607784,16.9361057 32.4705081,16.9213509 C32.4802378,16.9065962 32.4996973,16.8725962 32.5236973,16.8873509 C32.5476973,16.9021057 32.6255351,16.8533509 32.6255351,16.8533509 C32.6300757,16.8193509 32.751373,16.8341057 32.751373,16.8341057 L32.7656432,16.7898415 C32.7656432,16.7898415 32.6832649,16.6782189 32.6689946,16.6782189 C32.6540757,16.6782189 32.5768865,16.6102189 32.5671568,16.6345962 C32.4899676,16.6153509 32.4945081,16.5082189 32.4945081,16.5082189 L32.4653189,16.4402189 C32.4653189,16.4017283 32.3933189,16.3189736 32.3784,16.3285962 C32.3057514,16.2753509 32.3589405,16.2118415 32.3784,16.2073509 C32.3978595,16.2022189 32.4465081,16.1342189 32.4465081,16.1342189 L32.4705081,16.0662189 L32.5528865,16.0418415 L32.5626162,15.9789736 L32.5191568,15.9738415 C32.5191568,15.9738415 32.5671568,15.8865962 32.5911568,15.8865962 C32.6158054,15.8865962 32.775373,15.8865962 32.7896432,15.8769736 C32.8045622,15.8673509 32.8331027,15.7897283 32.8331027,15.7749736 C32.8331027,15.7602189 32.8720216,15.7557283 32.8862919,15.7505962 C32.9012108,15.7454642 32.9349405,15.7069736 32.9446703,15.6877283 C32.9544,15.6678415 32.9206703,15.5465962 32.9012108,15.5658415 Z" id="Fill-95" fill="#FEFEFE"></path>
                    <path d="M30.2201514,17.317034 C30.2272865,17.3099774 30.2344216,17.3388453 30.2493405,17.3349962 C30.2636108,17.3317887 30.2707459,17.3606566 30.2564757,17.3606566 C30.2422054,17.3606566 30.2422054,17.3792604 30.2422054,17.386317 C30.2422054,17.3933736 30.2422054,17.4119774 30.2311784,17.422883 C30.2201514,17.4337887 30.2091243,17.4260906 30.1948541,17.419034 C30.1799351,17.4119774 30.1728,17.4119774 30.1546378,17.4119774 C30.1364757,17.4119774 30.1513946,17.4408453 30.1513946,17.4408453 C30.1513946,17.4408453 30.0748541,17.4376377 30.0891243,17.4260906 C30.1040432,17.4158264 30.1183135,17.4119774 30.1079351,17.4042792 C30.0969081,17.3972226 30.1079351,17.390166 30.1079351,17.3754113 C30.1079351,17.3606566 30.1436108,17.3683547 30.1332324,17.3574491 C30.1222054,17.3459019 30.1332324,17.3042038 30.1513946,17.3279396 L30.161773,17.3022792 C30.1513946,17.2913736 30.1585297,17.2875245 30.1364757,17.2804679 C30.1150703,17.2734113 30.1332324,17.2297887 30.1332324,17.2297887 L30.1364757,17.2002792 C30.1436108,17.1643547 30.2162595,17.1605057 30.2201514,17.1932226 C30.2233946,17.2259396 30.2201514,17.2477509 30.2201514,17.2477509 L30.2422054,17.2548075 C30.2422054,17.2548075 30.2383135,17.2772604 30.2201514,17.2772604 C30.2019892,17.2772604 30.2201514,17.288166 30.2091243,17.2990717 L30.2201514,17.317034 Z" id="Fill-96" fill="#FEFEFE"></path>
                    <path d="M29.9805405,17.3536 C29.9915676,17.3317887 30.0168649,17.2368453 30.0460541,17.2663547 C30.0745946,17.2952226 30.0927568,17.2663547 30.0927568,17.2663547 C30.0927568,17.2663547 30.1076757,17.2804679 30.1005405,17.3099774 C30.0927568,17.3388453 30.0856216,17.3683547 30.0674595,17.3715623 C30.0492973,17.3754113 30.035027,17.386317 30.012973,17.390166 C29.9915676,17.3940151 29.9805405,17.3536 29.9805405,17.3536 Z" id="Fill-97" fill="#FEFEFE"></path>
                    <path d="M20.5873946,17.1556943 C20.5873946,19.1501472 18.9528,20.7667509 16.9361514,20.7667509 C14.9188541,20.7667509 13.2842595,19.1501472 13.2842595,17.1556943 C13.2842595,15.1612415 14.9188541,13.5446377 16.9361514,13.5446377 C18.9528,13.5446377 20.5873946,15.1612415 20.5873946,17.1556943" id="Fill-98" fill="#FEFEFE"></path>
                    <path d="M7.30307027,4.33083019 C7.30307027,6.32528302 5.66847568,7.94188679 3.65182703,7.94188679 C1.63452973,7.94188679 -6.48648649e-05,6.32528302 -6.48648649e-05,4.33083019 C-6.48648649e-05,2.33637736 1.63452973,0.719773585 3.65182703,0.719773585 C5.66847568,0.719773585 7.30307027,2.33637736 7.30307027,4.33083019" id="Fill-99" fill="#FEFEFE"></path>
                    <path d="M7.30307027,17.1556943 C7.30307027,19.1501472 5.66847568,20.7667509 3.65182703,20.7667509 C1.63452973,20.7667509 -6.48648649e-05,19.1501472 -6.48648649e-05,17.1556943 C-6.48648649e-05,15.1612415 1.63452973,13.5446377 3.65182703,13.5446377 C5.66847568,13.5446377 7.30307027,15.1612415 7.30307027,17.1556943" id="Fill-100" fill="#FEFEFE"></path>
                    <path d="M7.30307027,29.8043358 C7.30307027,31.7987887 5.66847568,33.4153925 3.65182703,33.4153925 C1.63452973,33.4153925 -6.48648649e-05,31.7987887 -6.48648649e-05,29.8043358 C-6.48648649e-05,27.809883 1.63452973,26.1932792 3.65182703,26.1932792 C5.66847568,26.1932792 7.30307027,27.809883 7.30307027,29.8043358" id="Fill-101" fill="#FEFEFE"></path>
                    <path d="M20.5873946,29.8043358 C20.5873946,31.7987887 18.9528,33.4153925 16.9361514,33.4153925 C14.9188541,33.4153925 13.2842595,31.7987887 13.2842595,29.8043358 C13.2842595,27.809883 14.9188541,26.1932792 16.9361514,26.1932792 C18.9528,26.1932792 20.5873946,27.809883 20.5873946,29.8043358" id="Fill-102" fill="#FEFEFE"></path>
                    <path d="M33.8717189,29.8043358 C33.8717189,31.7987887 32.2371243,33.4153925 30.2204757,33.4153925 C28.2031784,33.4153925 26.5685838,31.7987887 26.5685838,29.8043358 C26.5685838,27.809883 28.2031784,26.1932792 30.2204757,26.1932792 C32.2371243,26.1932792 33.8717189,27.809883 33.8717189,29.8043358" id="Fill-103" fill="#FEFEFE"></path>
                    <path d="M33.8717189,4.33083019 C33.8717189,6.32528302 32.2371243,7.94188679 30.2204757,7.94188679 C28.2031784,7.94188679 26.5685838,6.32528302 26.5685838,4.33083019 C26.5685838,2.33637736 28.2031784,0.719773585 30.2204757,0.719773585 C32.2371243,0.719773585 33.8717189,2.33637736 33.8717189,4.33083019" id="Fill-104" fill="#FEFEFE"></path>
                    <path d="M20.5873946,4.33083019 C20.5873946,6.32528302 18.9528,7.94188679 16.9361514,7.94188679 C14.9188541,7.94188679 13.2842595,6.32528302 13.2842595,4.33083019 C13.2842595,2.33637736 14.9188541,0.719773585 16.9361514,0.719773585 C18.9528,0.719773585 20.5873946,2.33637736 20.5873946,4.33083019" id="Fill-105" fill="#FEFEFE"></path>
                </g>
            </g>
        </g>
    </g>
</svg>
