<svg class="icon-liberia" xmlns="http://www.w3.org/2000/svg" width="91.9" height="94.7"><path fill="none" stroke="#FFF" d="M46.2 72.8l-.3.1-.1.1v.2-.2l.1-.1.3-.1.2-.1.1-.1-.1.1-.2.1zM9.9 43.1l.1-.1-.1.1zm-.2.2l-.2.3.2-.3zm4.8-19.9l.8.2-.8-.2zm76 48.2h-.4l-.3-.2-.2-.3-.2-.4-.1-.4V70l.3.2.1-.2v-.8l.2-.3.3-.2.1-.2-1.4.1 1.4-.1-.3-.3h.5l-.3-.4-.1-.4.2-.3.5.1-.3-.4-.7-1.5-.4-1.7v-.8l.1-.9-.1-.9-.7-.3-.1.7-.1.4-.2.2-.2-.1-.1-.5-.2-.3-.3-.1.1-.4-.2.1-.2.3-.3.1-.2-.1-.3-.4-.2-.1.2-.2-.1-.1-.4-.2h-.1l-.5-.3v-.1l-.4-.1-.3-.3-.2-.2-.1-.1-.3.3-.3.4-.3.2-.4-.6-.2-.2-.9-.5-.3-.4v-.9l.2-.1V57l-.1-.1-.1-.1h-.1l-.1-.1-.1-.5.1-.2-.2-.2H81l-.3.1-.2.1v.1l-.2-.3-.1-.5.1-.5.1-.5.3-.9-.1-.3-.3-.4-1-.8-.1-.1-.1-.3v-.1H79l-.2.1h-.1l-1.4-.3-.4-.2-.4-.1h-.6l-1 .1-.3.1-.5.3-.3.1h-.4l-.2-.1-.1-.1-.2-.1-.3-.1-1.7-.4-.2-.1v-.5l-.2-.1h-.2l-.1.1h-.1l-.2-.2-.2-.2-.2-.1-.3.2-.2-.1h-.3l-.3.1-.2.2-.3-.3.1-.1.2-.1.1-.2-.1-.2-.2-.3v-.2l.1-.4.2-.1V48l-.3-.4-.7-.4-.3-.3-.1-.1-.1.2-.1.4-.2.4-.2.2-.4-.1-.7-.9-.2-.2-.3-.1h-1.1l.5-.7h.4l.1-.1v-.1l.1-.3.4-.2h.1l.3-.4 1.6-1.3 2.4-2.7.3-.5.3-.6.2-.7v-.6l-.1-.1-.2-.2-.1-.2.3-.6V36.2l.1-.2.5-.4.2-.2V35l-.4-2.1v-.5l-.1-.2-.1-.2-.4-.4v-.7l-.1-.2-.3-.3-.1-.2-.2-.7-.1-.3-.4-.5-.2-.3V28l-.3-2.2-.5-1.6-.4-.8-.9-.4-.7-.4-.7-.5-.4-.5-.1-.6.1-.8-2.6-.2-.2.4-.6.7-.2.5v.9l-.1.2v.2l.2.1.1.1v.5l-.1.4-.2.4-.4.4-.6.5-.1.1-.1.2v.5l-.1.2-.2.2-.4.1-.2.1-.4.5-.2.3-.1.2v.4l.2.4.1.4-.1.4-.2.1-1 .4h-.3l-.4-.7-.4-.1-.1.6-.2-.1h-.1l-.1.4h-.1l-.5.1-.2.1h-.4l-.3.2-.3.3-.3.2-.3.1h-.4l-.1.1-.3.2.2-.8-.1-.3-.4-.2-.1-.1v-.4l-.1-.1h-.6l-.5-.5-.3-1.4-.3-.5h-.3l-.9.2-.4-.1-.1-.2-.2-.4-.2-.2-.1-.1-.2-.1H46.9l-.1.1v.2l-.1.1h-.1l-.3.6-.3-.2-.4-.8-.3.4-.6.6-.2.1.1.2-.1.1.1-.1-.1-.2-.1-.1.2-.2.1-.2.1-.3V26l.1-.3.2-.2.5-.3.5-.8.2-.5-.1-.3.4-.5.2-.3.1-.6.1-.2.2-.3.2-.2-.4-.5v-.8l.2-.8.2-.6-.6-.7-.2-.4-.6-.7-.5-.9-.2-.9.1-.9.3-1v-.1l.2-.2v-.4l-.1-.2-.3-.4h-.2l-.3.2-.3.3v-.3l.2-.4v-.2l-.2-1.6v-.2l-.1-.3-.2-.1-.5-.1-.4-.3v-.6l.1-.6.2-.4h.2v-.2l-.1-.1-.1-.2-.1-.2-.1-.2-.2-.2.2-.3.1-.1.3-.2.3-.2-.1-.1-.2-.1-.4-.3-1.1-.5-.3-.4L42 4l-.2.2-.1.1-.2.1h-.8l-.3.1-.2-.1V4l.2-.3.3-.2.3-.2-.1-.5-.3-.3-.4-.2h-.4l-.3.3-.1.5v.3l-.1.1-.3-.4-.2-.4-.1-.4-.1-1-.1-.4-.2-.3-.4-.1v.3l-.2.2-.2.2-.2.2v.2l.1.2v.1l-.5.2-.4.2-.2.1-.1-.1-.1-.1L36 2l-.3.1h-.5l-.4.1-.4.1-.4.2-.9.7-.9.5-.5.1-.3-.1-.1-.3.2-1V2l-.3-.2-1.2-.3h-.4l-.4.1-.7.7-.4.2-.2-.4-.5.2H27v1.2l-.7 2.7-.4.8v.5l.1.7.2.4-.1.4-.5.5-.4.3-.4.2-.5.1h-1.8l-.4.1-.5.3-.3.4-.5.9-.3.2-.6.3-.2.2-.1.2.6.5-.6-.5v.3l.1 5.4-.5.1H19l-1 .5-.8.7-2.9 3.6-.3.3-.2.2-.3.1-.8.2-.9.5-3.3 2.6-1.8 2.3-.2.2-1.8.8-.4.1-.8 1.2-.4.4-.1.1.1.2.3.5.1.3v.2l-.1.1-.2.1-.5.1-.1.2.1.4-.1.3-.1.4-.2.4-.6.3-.1.4v.6l-.2.1-.7.3.6.8.2.2.4.3.4.3.4.1.1.1.3.6v.5l-.1.5v.9l.5.6 2.6 1.2 3.4 1.2-.1-.3v-.5.5l.1.3.5.1 2.4 1.4c1.1 1.3 2.3 2.7 3.4 4v.2l.4.6-.2-.1-.2-.1-.1-.1-.1-.2-.2.4.4.4 2.8 1.5.5.1 4 1 .7.3.6.4.3.4-.2-.5-.5-.4-.7-.4c.6.2 1.2.5 1.7.8l.2.2h.2c.1 0 .2.1.2.1l-.1.1-.1.1h-.2l-.2-.1.2.3.2.3.4.2.8.2.4.2 1.2.7.9 1 1.6 1.2.2.1.3.1.4.2.4.3.2.3v.3l-.1.3.1.2.1.2.4.2.2.1.8.9 3 2.5 2.4 2.3.8.8 2.2 1.3.4.5-.1.2-.3.4v.2h.1l.6.1h.1l.3.1.4.2.4.2.2.2.2.4.2.8.2.3 1.2 1.1.1-.1v-.1.1l-.1.2 1.4 1.3.4.2.5.2.4.2.3.4h-.3l.3.4.4.2.4.1.7.5.8.4.3.2 1.3 1.1.8.5 1 .3-.1.1h-.1l.4.3.5.2.5.2.7.1.5.2h.2l.7.3.6.4 1.5 1.3.7.4 1 .4 2.1.8 1.3.7 2.4 1.7 2.3.8.4.1.4.2.9 1 .8.3 2.7.3 1.4.5.8.1 1 .3.4.2.2.1.2.2.2.1h.4l.2.1.5.4.4.1.1-.2.3-.5-.3.5-.1.2.3.1.2.3.1.3.1.3.2.2.3.2.9.3h.4l.1.1.1.2.1.2.2.1H85l.3.1.5.2h.3l1.2-.1-.7-.5-.1-.3v-.2l.2-.4.1-.2v-.2l-.2-.5V91l-.1-.2v-.2l.1-4.7-.1-1.1-.1-.2-.1-.2-.2-.1-.1-.2-.1-.3v-.2l.1-.5v-.3l-.2-.7v-.2l.7-.5h.3l.2.1h.1v-.3l-.1-.3-.2-.3-.2-.3v-.5l-.2-1.3.1-.4.3-.4.4-.2h.4l.3.1.6-1.1.1-.4v-.4l-.2-1 .2-.7.1-.2.2-.2.6-.3.1-.1h.3v.1l-.1.1v.1l.1.1v.4l.1.1V74l.1-.1.1-.4.1-.1.3-.4.1-.2v-.3l-.1-.5-.1-.4z" opacity=".3"/></svg>
